<svg xmlns="http://www.w3.org/2000/svg" viewBox="0 0 64 64" id="ChineseTemple"><path d="M33 53.2c-.00279.07886.002 1.025 0 1.08.00971-.0511 7.67353.09163 7.58005-.05.01043-.65618-.00756-2.35223 0-3.03006l0-10.89H33C32.99628 41.75031 33.00268 52.0555 33 53.2zM23.42 53.2c-.00278.07886.002 1.025 0 1.08.0097-.0511 7.67352.09163 7.58005-.05.01042-.65618-.00757-2.35223 0-3.03006l0-10.89H23.42C23.41626 41.75031 23.42266 52.0555 23.42 53.2zM56.22 56.14c-14.01708 0-28.65453 0-42.67 0-2.23677.00287-7.34246-.00206-9.54986 0L4 58.31a1.003 1.003 0 001 1c4.86049-.00286 12.32862.00206 17.13007 0 11.805.173 25.05847-.0707 36.86993.0001A1.00309 1.00309 0 0060 58.31V56.14zM31 22.92V20.24H24.9c.00619 1.082-.00445 3.427 0 4.49H31zM39.1 22.92V20.24H33c.00618 1.082-.00445 3.427 0 4.49h6.1z" fill="#d8a353" class="color000000 svgShape"></path><path d="M19.4,24.92h-.55v1.3c3.56633.00025,10.42349-.00018,14.02,0,2.72452-.00006,9.63591.00005,12.28,0v-1.3H44.6a1.00292,1.00292,0,0,0,1-1v-1h-2V17.28H20.4V22.92h-2v1A1.00292,1.00292,0,0,0,19.4,24.92Zm3.5-5.68a1.00292,1.00292,0,0,1,1-1H40.1a1.00292,1.00292,0,0,1,1,1c-.02564,1.29254.01847,4.42426-.00006,5.68L33,24.92c-1.29213-.00057-8.64735.00042-10.1,0C22.87981,23.67633,22.91459,20.52006,22.9,19.24Z" fill="#d8a353" class="color000000 svgShape"></path><polygon points="40.67 10.85 23.33 10.85 19.87 15.26 44.13 15.26 40.67 10.85" fill="#d8a353" class="color000000 svgShape"></polygon><path d="M41.16 10.85a1.08034 1.08034 0 00.99995-1.34L42.16 5.98a1 1 0 10-2 0V9.85A.99655.99655 0 0041.16 10.85zM22.84 10.85a.99655.99655 0 001-1V5.69a1 1 0 00-2 0V9.51A1.0805 1.0805 0 0022.84 10.85zM50.47 28.22c.56743-.00562 1.05375-.54407 1.46-.82992a7.07017 7.07017 0 002.28-3.25.99986.99986 0 00-1.93-.52A5.24273 5.24273 0 0150.16 26.22 1.03051 1.03051 0 0050.47 28.22zM12.08 27.38c.40949.31147.88034.82946 1.45.84A1.00154 1.00154 0 0014.08 26.39c-.08-.06-.16-.11-.23993-.17A5.34465 5.34465 0 0111.73 23.63a1.00319 1.00319 0 00-1.94.51007A7.18665 7.18665 0 0012.08 27.38zM9.28 54.28h6.27v-.05c.00407-.641-.00294-2.363 0-3.03V37.47h1.37c-.00563 2.31231.00406 14.76626 0 16.81006 1.09124.0048 3.39656-.00346 4.5 0-.00078-.01769.00056-.11741 0-.14V53.2c.02169-.963-.01562-12.57836.00005-13.89a1.00289 1.00289 0 01.99995-1H41.58a1.003 1.003 0 011 1V51.2c-.00463.69015.00333 2.40207 0 3.08h4.5v-.05c-.01111-1.92316.008-14.56169 0-16.76h1.37c.00666 2.27075-.0048 14.762 0 16.76l0 .05h6.27v-.05h2V52.2a1.00291 1.00291 0 00-1-1H50.45V37.47H55.6a.99026.99026 0 001-1V33.33a1.04337 1.04337 0 00-.29-.77c-.30034-.48268-2.12709-.23351-2.87-.29l-3.43-4.05H47.15c-2.26817.00024-28.03021-.00017-30.3 0H13.99L10.56 32.27H8.4a1.02 1.02 0 00-.77.35 1.10714 1.10714 0 00-.23.71v3.14a.99026.99026 0 001 1h5.15V51.2H8.28a1.00291 1.00291 0 00-1 1v2.03h2zM9.4 34.27H54.6v1.2H49.55c-4.89191-.01905-30.20588-.019-35.1-.00005L9.4 35.47z" fill="#d8a353" class="color000000 svgShape"></path></svg>