<?xml version="1.0" encoding="utf-8"?>
<!-- Generator: Adobe Illustrator 23.0.0, SVG Export Plug-In . SVG Version: 6.00 Build 0)  -->
<svg version="1.1" id="Layer_1" xmlns="http://www.w3.org/2000/svg" xmlns:xlink="http://www.w3.org/1999/xlink" x="0px" y="0px"
	 viewBox="0 0 170.1 170.1" style="enable-background:new 0 0 170.1 170.1;" xml:space="preserve">
<style type="text/css">
	.st0{fill-rule:evenodd;clip-rule:evenodd;fill:#994C00;}
	.st1{fill-rule:evenodd;clip-rule:evenodd;fill:#CC9900;}
	.st2{fill:none;stroke:#994C00;stroke-width:0;stroke-linecap:round;stroke-linejoin:round;stroke-miterlimit:10;}
	.st3{fill:none;stroke:#CC9900;stroke-width:0;stroke-linecap:round;stroke-linejoin:round;stroke-miterlimit:10;}
</style>
<g id="HATCH">
	<path class="st0" d="M77.1,38.9c0.8,1.5,3.5,1.4,5.8,1.2c0.2-0.2,0.2-0.6,0.2-1c1,0.7,4.8,0.8,5.8,0c0.2,0.2,0,0.7,0.2,0.9
		c2.1,0.5,5.2,0.2,5.9-1c-0.2,1.1-0.7,2-1.6,2.5c-4.9,0-9.8,0-14.6,0C77.8,41,77.3,40,77.1,38.9z"/>
</g>
<g id="HATCH_1_">
	<path class="st0" d="M97.2,41.5c-0.4,1.2-0.9,2.3-1.9,2.9c-6.2,0-12.4,0-18.7,0c-1-0.6-1.5-1.7-1.9-2.8c0-0.2,0.1-0.2,0.1-0.1
		c2.1,1.7,6.5,1.1,11.2,1.1c3.4,0,6.8,0.4,9.1,0C96,42.5,96.6,41.8,97.2,41.5z"/>
</g>
<g id="HATCH_2_">
	<path class="st1" d="M101.2,45.8c0,2.2,0,4.5,0,6.7c-0.7,0-1.4,0-2.1,0c1-4-3.7-4-2.7,0c-1.4,0-2.8,0-4.2,0c0-1.8,0.2-3.4-1.2-3.6
		c-1.7-0.2-1.9,1.5-1.7,3.6c-0.6,0-1.2,0-1.8,0c1.2-4.5-4.1-4.6-2.9,0c-0.6,0-1.2,0-1.8,0c0.1-1.9,0.1-3.5-1.4-3.6
		c-1.6-0.1-1.7,1.5-1.6,3.6c-1.3,0-2.7,0-4,0c1-4-3.7-4-2.7,0c-0.8,0-1.5,0-2.3,0c0.1-2.2-0.1-4.6,0.1-6.7
		C81,45.8,91.1,45.8,101.2,45.8z"/>
</g>
<g id="HATCH_3_">
	<path class="st0" d="M39.1,55.2c1.4,1.2,2.8,2.5,4.5,3.5c-0.4,1.7-1.2,3.1-2.2,4.5c-0.8,1.2-1.9,2.8-3.2,3.4
		c-3.8,1.5-5.4-3.2-5.6-6.7c-0.1-2.6,0-5.3-1.4-6.8c-2.7,1-4.4,3-5.9,5.2c2.6-0.8,5,0.6,4.6,3.1c-0.2,1-1.2,1.7-2.6,1.5
		c0.5-0.6,1.3-0.7,1.5-1.5c0.4-2-2.3-2.1-3.9-1.5c1.1,0.7,2.4,3.3,0.9,4.8c-1.1,1.2-3.6,0.7-3.8-1.1c0.3-0.1,0.6,0.4,1.2,0.5
		c3,0.5,2.5-3.3,0.5-3.8c-0.4,0.7-0.5,1.5-1.2,2c-1.2,0.9-3.1,0.2-3-1.6c0.4-0.1,0.6,0.9,1.7,0.7c0.9-0.1,1.3-1.1,1.1-2.2
		c2.1-3.9,4.7-7.3,8-10.3c0.7-0.7,1.8-2,3.1-0.8c0.5,0.4,0.8,2,1,2.9c0.8,3,1.7,6.4,2.6,9.1C38.2,59.4,38.5,57,39.1,55.2z"/>
</g>
<g id="HATCH_4_">
	<path class="st0" d="M128.1,58.6c1.6-1.1,3.1-2.2,4.5-3.6c0.4,1.9,0.7,4,2.1,5c0.8-2.3,1.7-5.6,2.5-8.5c0.4-1.6,0.5-4.4,2.8-3.8
		c1,0.2,2.1,1.9,2.7,2.6c2.7,2.7,4.9,5.6,6.6,9.1c-0.7,2.1,2.2,2.7,2.9,1.2c0.1,3.2-4.2,2.4-4.2-0.2c-2,0.4-2.5,4.4,0.5,3.8
		c0.5-0.1,1-0.7,1.3-0.5c-0.3,1.6-2.3,2.2-3.6,1.4c-1.7-1.2-0.9-4.4,0.6-5.1c-1.6-0.5-4-0.6-4,1.1c0,1,0.9,1.2,1.5,1.8
		c-2.6,0.6-3.2-2.7-1.8-4c0.9-0.9,2.4-0.8,3.8-0.5c-1.3-2-3.2-4.2-5.9-5.2c-1.6,1.6-1.3,4.6-1.5,7.1c-0.2,3-1.5,7.6-5.3,6.4
		c-1.2-0.4-2.5-2-3.4-3.3C129.2,61.8,128.5,60.5,128.1,58.6z"/>
</g>
<g id="HATCH_5_">
	<path class="st0" d="M84.6,56.1c-0.4,0.9-0.3,2.2-0.7,3.1c-0.4,0.3-1.1,0.1-1.3,0.5c-0.1,0.6,0.5,0.5,0.5,1c0,0.3-0.2,0.4-0.3,0.5
		c-0.8,0-1.4-0.2-1.6,0.4c0.9,1,0.7,1.6-0.9,1.7c0.1,0.8,1,0.6,0.8,1.4c-0.2,0.9-1.2,0.2-1.9,0.6c0.4,0.7,0.3,1.7-0.3,1.8
		c-0.8,0.1-1.2-1.6-1.6-2.1c1-0.3,2.1-0.4,2.3-1.3c0.3-1.1-0.9-2.1-1.2-3.1c1.5,1.2,3.7,0.1,2.7-2c1.8,1,2.3-1,2.9-2.1
		c-1-0.7-1.7,0.1-1.8,1.1c-0.6-0.4-1.1-0.9-1.6-1.3C80.8,54.7,83.8,55,84.6,56.1z"/>
</g>
<g id="HATCH_6_">
	<path class="st0" d="M90.5,58.7c-0.8,2,1.2,3.3,2.7,2c-0.2,1-1.3,1.8-1.2,2.8c0.1,1,1.2,1.3,2.4,1.6c-0.6,0.4-0.8,2.2-1.6,2.1
		c-0.7-0.1-0.8-1.1-0.4-1.8c-0.7-0.4-1.8,0.2-1.9-0.7c-0.1-0.7,0.7-0.5,0.8-1.2c-0.1-0.6-1.5,0-1.6-0.6c0-0.6,0.5-0.7,0.7-1.1
		c-0.2-0.9-1.3-0.2-1.9-0.6c0-0.2-0.1-0.2-0.1-0.4c0-0.5,0.6-0.4,0.5-0.9c-0.1-0.6-1.1-0.4-1.5-0.7c-0.2-0.9-0.2-2.2-0.6-2.9
		c0.7-1.2,3.8-1.5,4.2,0.2c-0.4,0.6-1,1-1.6,1.4c0-1-0.9-1.8-1.7-1.1C88.2,57.7,88.8,59.8,90.5,58.7z"/>
</g>
<g id="HATCH_7_">
	<path class="st0" d="M79.2,55.4c0.9,1-0.3,2.1-0.6,2.9c-2-1-4,1-3,2.9c-4.5-1.5-6.1,2.6-5.7,7.1c-0.3,0-0.7-0.1-0.9-0.2
		c0.3-1-0.7-1.1-0.7-2c0.2-0.3,0.8-0.2,0.9-0.6c-0.1-0.8-1.6-0.7-1.2-1.8c0.3-0.2,1,0,1.3-0.2c0.8-0.9-0.7-1.4-0.6-2.4
		c0.6-1,1.4,0.5,2,0c-0.5-0.8-0.7-1.9,0.5-1.8c0.6,0.1,0.4,0.5,1,0.7c0.6-0.3-0.1-0.8,0.1-1.5c0.4-0.5,1.3-0.2,1.7,0.1
		c0.4-0.1,0.1-0.9,0.2-1.3c0.3-0.4,1.2-0.7,1.6-0.2c0.2-1,1.3-1.3,1.8-0.4C78.3,56.6,77.9,55.1,79.2,55.4z"/>
</g>
<g id="HATCH_8_">
	<path class="st0" d="M93.9,56.8c0.6-0.5,1.6-1.1,1.8,0.4c0.5-0.4,1.2-0.3,1.6,0.1c0.2,0.5-0.1,0.9,0.1,1.4c0.6-0.2,1.6-0.7,1.9,0.1
		c0,0.6-0.5,1,0,1.3c0.3-0.2,1.5-1.4,1.9-0.3c0.2,0.5-0.2,0.7-0.5,1.2c0,0.2,0.2,0.2,0.3,0.4c0.5-0.1,0.7-0.6,1.4-0.5
		c0.1,0.1,0.2,0.2,0.4,0.3c0.1,1.1-1.4,1.6-0.5,2.6c0.4,0,0.9-0.1,1.2,0.1c0.4,1.1-0.9,1.1-1.2,1.7c0,0.5,0.7,0.4,0.9,0.7
		c0.1,1-1,0.8-0.7,2c-0.2,0.1-0.5,0.2-0.8,0.2c0-3.7-0.4-7.5-3.8-7.5c-0.7,0-1.1,0.3-1.8,0.4c0.8-2.1-1-3.9-3-2.9
		c-0.6-0.5-1.9-3.1-0.3-2.9C93.5,55.4,93.3,56.5,93.9,56.8z"/>
</g>
<g id="HATCH_9_">
	<path class="st0" d="M76.2,62c-0.4-1.4-0.8-3.4,0.8-3.6c0.7-0.1,1.3,0.4,1.9,0.6c0.1-0.9,0.2-1.9,0.9-2.1c0.9-0.2,1.4,0.8,2.2,1
		c0.8-0.1,0.2-1.7,1.4-1.5c0,0.2-0.3,2-0.9,2.2c-0.6,0.2-0.9-0.4-1.6-0.5c-0.7,0.4,0.2,2-0.5,2.5c-1.1,0.4-1.6-0.5-2.7-0.5
		c-0.5,1.4,1.8,1.7,1.3,3.4c-0.2,0.8-1.3,0.9-2.2,0.8c-1.5-0.2-2.8-2.5-4.3-1.8c-0.7,0.3-0.9,0.9-0.9,1.4c-0.3,2.6,3.4,4.6,1.3,7
		c-0.1-0.1-0.3-0.2-0.4-0.3c-0.1-1.1-1.4-4.3-1.7-5.6C69.9,62.1,73.8,60.2,76.2,62z"/>
</g>
<g id="HATCH_10_">
	<path class="st0" d="M98.7,71c-1.9-2.3,1-4.2,1.2-6.4c-0.6,2-3.4,4.6-1.2,6.7c1.1-1.4,2-3,2.1-5.5c1.6,3.1-2.1,4.9-2.4,7.5
		c-0.2,1.3,0.5,2.1,0.6,3.7c-1.6-0.9-2-4.2-0.5-5.5c-0.2-0.2-0.4,0.1-0.5-0.2c-2-2.4,0.5-5.8,1.8-7c0.1-0.8-0.4-1.7-1.1-1.8
		c-1.2-0.2-4.5,3.5-6.1,1.4c-1.1-1.4,1.3-2.1,1.3-3.6c-1.1-0.4-1.8,0.9-2.7,0.4c-0.8-0.5,0-1.7-0.4-2.5c-0.7,0-1.2,0.7-2,0.4
		c-0.2-0.7-0.8-1.5-0.7-2.1c1.2-0.2,0.6,1.3,1.4,1.5c0.9-0.2,1.1-1.1,2.3-1c0.5,0.4,0.8,1.1,0.8,2c0.8-0.2,2.2-1,2.9-0.1
		c0.6,0.8,0,2-0.2,3c0.7,0,1.2-0.5,1.8-0.6c2.1-0.3,3.9,1.2,3.7,3.5c-0.1,0.7-0.6,1.7-0.9,2.7C99.5,68.9,99.4,70.2,98.7,71z"/>
</g>
<g id="HATCH_11_">
	<path class="st0" d="M73,71.5c0-0.1-0.1-0.1-0.1-0.3c2.2-2.2-0.9-4.5-1.2-6.8c1.5,1.4,3.8,4.8,1.6,7.1C73.2,71.6,73.2,71.4,73,71.5
		z"/>
</g>
<g id="HATCH_12_">
	<path class="st0" d="M72.4,77c0.1-1.2,0.7-2.1,0.7-3.2c0-2.9-3.9-4.6-2.6-8c0.3,1.6,0.5,2.8,1.3,4.2c0.7,1.2,1.8,2.1,2,3.5
		C74.1,75,73.4,76.2,72.4,77z"/>
</g>
<g id="HATCH_13_">
	<path class="st0" d="M65.9,69.9c-1,0.6-1.6,0.1-1.6-0.6c-0.2-1.4,1.5-1.8,2.3-1.6c1.9,0.5,0.1,4.2,1.9,4.4c1.2,0.1,1.3-1.3,0.8-2
		c2.8,2-2.9,4.8-2.6,0.6c0.1-0.8,0.6-2.4-0.8-2.5c-0.5,0-1,0.4-1,0.7C64.9,69.6,66,69.2,65.9,69.9c0.1-0.6-0.2-0.8-0.6-0.8
		c1.2-1.3,2,1.1,1,1.8c-0.6,0.5-1.7,0.2-2.1-0.2c-1.9-1.7,0.4-4.2,2.4-3.9c2.1,0.3,1.9,2.5,1.9,4.4c0.4-0.2-0.1-0.9,0.5-1
		c0.5,0.1,0.5,1.1,0.2,1.5c-0.6,0.3-1.1-0.1-1.3-0.5c0-1.6,0.4-2.5-0.5-3.3c-1.1-1-3.2-0.2-3.3,1C64,69.8,65.2,71,65.9,69.9z"/>
</g>
<g id="HATCH_14_">
	<path class="st0" d="M103.6,71.5c-0.2,0.2-0.8,0.4-1.2,0.2c-0.3-0.4-0.2-1.2,0.1-1.5c0.5,0,0.5,0.5,0.5,1c0.8-0.6,0.1-1.1,0.1-1.6
		c-0.2-3.5,4.8-3.5,4.9-0.5c0.1,1.9-2.2,3-3.1,1.4c-0.3-1.2,0.6-2.1,1.4-1.4c-1.9,1,1,2.1,1.2,0.2c0.1-1.1-1.1-1.8-2-1.7
		C103.5,67.5,103.6,69.5,103.6,71.5z"/>
</g>
<g id="HATCH_15_">
	<path class="st0" d="M105.7,69.4c0.4-0.1,0.9-0.1,1-0.5c-0.1-0.2-0.6-0.7-1-0.7c-2.3,0,0.1,3.5-1.5,4.5c-1.8,1.1-3.9-1.5-2.1-2.7
		c-0.2,0.6-0.4,2,0.8,2c2,0,0.2-4,2.1-4.4c1.2-0.3,3.1,1,1.9,2.2C106.7,70.2,105.7,70.6,105.7,69.4z"/>
</g>
<g id="HATCH_16_">
	<path class="st0" d="M99.4,76.1c-2-2.3,0.3-5.6,1.8-6.9c-0.3,1.6-2.1,2.8-2.1,4.6C99.1,74.7,99.8,75.2,99.4,76.1z"/>
</g>
<g id="HATCH_17_">
	<path class="st0" d="M71,71.3c1,1-0.1,1.3-0.3,2.3c-0.4,1.8,1.6,3.2,1.4,4.7c-0.2,1.1-1.8,1.5-1.8,2.7c0,0.8,0.8,1.6,1.6,1.6
		c1.7,0,1.7-3.1,3.9-3.2c1.4,0,2.7,1.3,4.5,1.5c2.7,0.3,4-0.6,5.5-1.9c1.7,1.3,3.1,2.2,5.5,1.9c2.2-0.2,4.3-2.5,6.2-0.8
		c0.8,0.7,1,2.5,2.3,2.6c0.6,0,1.5-0.6,1.6-1.4c0.1-1.4-1.7-1.9-1.8-3c-0.2-1.3,1.6-2.8,1.5-4.3c-0.1-1.1-1.3-1.4-0.5-2.5
		c1.2,0.4,1.7,1.4,1.7,2.7c0.1,1.6-1,2.4-0.8,3.7c0.2,1.6,2.9,2.1,2.4,4.9c-0.4,2.1-3.6,3.2-5.3,1.6c-1-0.9-1.5-3.1-2.7-3.3
		c-1.5-0.3-2.9,1.2-4.8,1.2c-2.3,0-4.3-1.3-5-3.1c-0.8,1.9-3.1,3.4-5.9,3c-1.3-0.2-2.6-1.3-3.9-1.1c-0.8,0.1-1.4,1.2-1.9,2
		c-0.8,1.3-2.1,2.6-4.1,1.9c-1.2-0.4-2.5-2-2-3.8c0.4-1.6,2.3-2.3,2.4-3.6c0.1-0.9-0.7-1.6-0.8-2.5C69.2,73.5,69.7,72,71,71.3z"/>
</g>
<g id="SPLINE">
	<path class="st2" d="M86.4,72.5c0.4,0.7-0.3,1.9-0.7,1.9C84.6,74.4,84.9,71.1,86.4,72.5z"/>
</g>
<g id="HATCH_18_">
	<path class="st0" d="M69.2,74.3c-2.3-0.7-4.5-0.4-4.7,1.7c-0.1,1.6,1,3.5-0.4,4.4c-0.5,0.4-1.2,0.4-1.9,0.4c-1.4-0.1-2.1-1.7-3-1.6
		c-0.8,0.1-0.5,1.3-1.1,1.8c-0.4,0.2-0.9,0-1.3-0.1c1.5-0.3,1.2-2.4,2.6-2.4c1.4,0,2.2,2.1,3.7,1.2c1.2-0.7,0.2-2.4,0.2-3.7
		C63.4,72.9,67.6,71.7,69.2,74.3z"/>
</g>
<g id="HATCH_19_">
	<path class="st0" d="M114.6,80.9c-0.2,0.2-0.6,0.3-1.1,0.3c-0.6-0.4-0.5-1.5-1.1-1.9c-1.3,0.4-3.8,2.9-5.5,0.8
		c-0.8-1,0.2-2.9,0-4.3c-0.3-2-2.6-2.1-4.7-1.5c1.5-2.1,4.8-1.7,5.7,0.5c0.6,1.5-1.2,4.8,0.8,5.2c1.5,0.3,2.2-1.6,3.6-1.3
		C113.4,78.9,113.1,80.5,114.6,80.9z"/>
</g>
<g id="HATCH_20_">
	<path class="st0" d="M55.2,79c1.7-0.4-0.6,0.4-0.4-0.8c0-0.3,0.3-0.1,0.4-0.3C54.6,77.6,54.7,79,55.2,79z M60.1,76.3
		c-0.1,0.3-1.1,0.2-1,0.4c1.3,0.4,1.8-1.3,0.7-1.2C60.1,75.5,60.1,75.9,60.1,76.3z M56.1,78.7c0.6-1,0.8-2.7,2.7-2.1
		c-0.4-0.1-0.9-1.1-0.5-1.8c1.2-1.9,5.1,0.8,3,2.7c-0.7,0.7-1.8,0.1-2.7,0.5c-0.8,0.3-0.5,1-1.3,1.6c-1.1,1-3.9,0.4-3.4-1.5
		C54.3,76.9,57,77.1,56.1,78.7z"/>
</g>
<g id="HATCH_21_">
	<path class="st0" d="M66,81.7c-0.9-0.1-1.1-0.7-1.5-1.3c0.6-0.6,1.3-0.7,1.4-1.7c0.2-1.7-1.2-3.8,0.5-4.3c0.9-0.2,1.8,0.1,2.6,0.2
		c-1.9,0.2-2.5,3.1-1.3,4.6C67.1,79.9,66.6,80.8,66,81.7z"/>
</g>
<g id="HATCH_22_">
	<path class="st0" d="M103.8,79.2c1.1-1.7,0.6-4.3-1.3-4.8c1.4-0.1,2.8-0.4,3.3,0.5c0.6,1.1-0.6,2.9-0.1,4.2
		c0.2,0.6,0.7,0.8,1.3,1.2c-0.5,0.4-0.8,1.4-1.5,1.3C104.8,81.6,104.6,79.5,103.8,79.2z"/>
</g>
<g id="SPLINE_1_">
	<path class="st2" d="M59.8,75.5c1-0.1,0.6,1.6-0.7,1.2c-0.1-0.2,0.9,0,1-0.4C60.1,75.9,60.1,75.5,59.8,75.5z"/>
</g>
<g id="HATCH_23_">
	<path class="st0" d="M68,79c-0.6-1-0.5-2.8,1.2-2.6C70.4,77.1,69.6,79.3,68,79z"/>
</g>
<g id="HATCH_24_">
	<path class="st0" d="M103.5,79c-1.1-0.1-1.9-0.5-1.8-1.6C101.9,75.2,105.2,77.1,103.5,79z"/>
</g>
<g id="HATCH_25_">
	<path class="st0" d="M85.2,78.6c-0.1,0.6-0.8,1-1.3,1.3c-0.9,0.5-1.9,0.9-3.4,0.7c-1.8-0.2-3.2-1.6-4.8-1.6c-2.1,0-2.4,2.9-3.8,3
		c-0.7,0.1-1.1-0.4-1.3-1c0.2-0.2,0.5,0.6,1.1,0.5c0.9,0,1.1-1.4,1.6-2.2c2-2.6,4.8,0.7,7.5,0.7C82.7,80.2,83.7,79.3,85.2,78.6z"/>
</g>
<g id="HATCH_26_">
	<path class="st0" d="M100.9,80.9c-0.2,0.7-0.5,1.2-1.2,1.2c-1.5,0-1.8-2.9-3.8-3c-1.9-0.1-3.8,1.8-6.1,1.6c-1.4-0.2-2.7-1-3.5-2
		c1.5,0.6,2.4,1.5,4.1,1.6c2.6,0.1,5.3-3.1,7.4-1.1C98.8,80,99.2,83,100.9,80.9z"/>
</g>
<g id="HATCH_27_">
	<path class="st0" d="M64.6,80.8c0.7,1.3,2,2.4,3,0.5c0,0.5,0,1-0.2,1.3c-0.9,1.3-2.8,0-3.4-0.7c-0.4,0-0.5,0.2-0.8,0.3
		C63.4,81.4,63.5,80.6,64.6,80.8z"/>
</g>
<g id="HATCH_28_">
	<path class="st0" d="M108.4,82.1c-0.2,0.2-0.4-0.2-0.7-0.2c-0.7,0-1,1.1-1.7,1.3c-1.2,0.3-2.2-0.5-1.9-1.8c0.5,0.4,0.6,1.1,1.3,1.1
		c1,0,1.3-2.2,2.5-1.6C108.1,81.1,108,81.5,108.4,82.1z"/>
</g>
<g id="HATCH_29_">
	<path class="st0" d="M76.9,81.7c1.4-0.1,2.1,0.9,1.7,2.3c-0.6,0.6-1.8,1-2.4,1.4C76.4,84,76.7,82.9,76.9,81.7z"/>
</g>
<g id="HATCH_30_">
	<path class="st0" d="M94.7,81.7c0.1,1.4,0.5,2.4,0.6,3.7c-1-0.5-3.6-1.5-2.3-3.2C93.3,81.9,93.9,81.8,94.7,81.7z"/>
</g>
<g id="HATCH_31_">
	<path class="st0" d="M62.2,82.2c2.5,0.3,2.6,4.4-1,3.8C63.2,86,63.7,83.3,62.2,82.2z"/>
</g>
<g id="HATCH_32_">
	<path class="st0" d="M109.2,82.2c-0.1,0.6-0.9,1.1-0.8,2c0,1,0.9,1.6,1.9,1.8C107.2,86.8,106.6,82.9,109.2,82.2z"/>
</g>
<g id="HATCH_33_">
	<path class="st0" d="M70.6,93.9c2.4,0.6,2.1-2.1,3.6-2.7c0.9-0.1,1.6,0.2,2.2,0c1.2-0.5,0.7-3.1,1.6-3.7c0.8-0.5,1.7-0.1,2.6-0.3
		c1.1-0.2,2.3-1.1,2.6-2.2c0.2-1-0.4-1.7,0.1-2.7c0.2,0,0.4,0,0.5-0.1c0.1,0,0.1,0.1,0.2,0.1c0.4,2,0.2,3.9-0.8,4.8
		c-1.2,1.1-2.4,0.3-4.1,0.9c-1.3,0.5-1,3.2-2.1,3.7c-0.8,0.3-1.7-0.4-2.5-0.2c-0.9,0.2-0.6,1.6-1.4,2.2
		C72.3,94.3,71.6,94.1,70.6,93.9z"/>
</g>
<g id="HATCH_34_">
	<path class="st0" d="M88.4,82.4c-0.2,1.9,0,3.6,1.4,4.4c1.2,0.7,3,0,3.9,0.8c0.8,0.7,0.3,3.3,1.5,3.6c0.7,0.2,1.4-0.2,2.1-0.1
		c1.1,0.3,1,1.2,1.6,2.3c0.4,0.3,1.3,0.6,2,0.4c-0.5,0.4-1.4,0.4-2,0.2c-0.9-0.4-0.7-1.9-1.5-2.3c-0.8-0.4-1.9,0.4-2.7,0.1
		c-1.3-0.5-0.6-3.4-2.2-3.7c-1.4-0.3-2.6,0.2-3.7-0.5c-1.4-1-1.6-3-1.1-4.9c0-0.1,0-0.2,0-0.3C88,82.2,88.2,82.4,88.4,82.4z"/>
</g>
<g id="HATCH_35_">
	<path class="st0" d="M79.3,82.5c0.9,0.3,2.2,0.3,3.2,0.1c0.2,1.4,0,2.9-0.9,3.6c-1.4,0.9-3.5,0.1-4.4,1.5c-0.5,0.7-0.2,1.8-0.6,2.7
		c-1.4,0.6-2.6,0-3.4,1c-0.6,0.8-0.3,2.4-1.7,2.3c0.9-0.5,0.7-2.1,1.4-3c0.6-0.9,1.5-0.8,2.7-1.4c0.3-1.4-0.1-2.1,0.3-2.9
		C76.6,84.5,80.2,85.6,79.3,82.5z"/>
</g>
<g id="HATCH_36_">
	<path class="st0" d="M92.1,82.5c0.1,0,0.1,0,0.2,0c-1.2,2.8,2.7,2.1,3.5,3.7c0.5,0.9,0,1.8,0.4,3c1,0.6,1.7,0.4,2.3,1
		c0.9,0.9,0.6,2.6,1.6,3.4c-1.7,0-1-2.4-2.5-2.9c-0.7-0.3-1.6,0.2-2.6-0.4c-0.5-0.6-0.3-1.6-0.5-2.2c-0.6-1.9-3.2-1-4.7-2
		c-1-0.7-1-1.8-0.8-3.6C90,82.8,91.3,82.9,92.1,82.5z"/>
</g>
<g id="HATCH_37_">
	<path class="st0" d="M60.1,83.2c0.1,0.4-0.7,0.5-0.8,1.1c-0.4,1.6,1.3,2.3,2.8,2.2c1.4-0.1,2.2-1.3,2.3-2.7
		c0.7,0.5,1.4,1.1,2.5,1.2c-0.6,1.2-2.2,2.3-4,2.6c-2.4,0.3-4.7-0.8-4.5-2.9C58.4,83.8,59,83.2,60.1,83.2z"/>
</g>
<g id="HATCH_38_">
	<path class="st0" d="M111.3,83.3c1.2-0.2,2,0.7,1.8,1.9c-0.5,3.6-7.3,2.5-8.5,0c0.8-0.4,2-0.9,2.5-1.3c-0.4,2.6,4.3,3.4,5.1,1.5
		C112.6,84.4,112,83.7,111.3,83.3z"/>
</g>
<g id="HATCH_39_">
	<path class="st0" d="M40.2,92.1c3.6,0.1,5.8,2.1,5.2,6c-1.1-0.6-2.1-1.3-3.5-1.4c-3.8-0.3-5.6,2.9-9.1,3.1c0.6,2.8,2.5,5.1,4.3,7
		c-0.1-2.7,3.2-5.1,5.3-3c0.2,0.2,0.2,0.6,0.5,0.9c0,0.8,0.1,1.7-0.5,1.9c0-1.3-0.7-2.3-1.6-2.3c-1.6,0-1.9,2-2,3.6
		c1.5-1.2,5-1.1,5.9,0.8c0.9,1.7-0.2,4.1-2.7,3.7c2.4-0.9,2-4.9-1.1-4.1c-0.6,0.1-1.6,0.7-1.6,0.9c0,0.2,1.4,1.2,1.6,2
		c0.6,1.9-1.2,3.6-3.1,2.7c1.5-0.1,2.4-2.2,1-3.2c-0.3-0.2-0.8-0.2-1.2-0.4c-0.9-0.5-2-1.6-3-2.6c-2-1.8-3.5-3.6-5.1-5.9
		c-0.8-1-2-2.4-2.2-3.3c-0.2-1.3,0.8-2.3,1.7-2.3c0.7,0,0.9,0.5,1.7,0.6c2,0.2,3.8-1.3,5-2.2C37.2,93.8,38.3,92.7,40.2,92.1z"/>
</g>
<g id="HATCH_40_">
	<path class="st0" d="M131.3,92.1c3.1,0.6,5.3,4.6,8.7,4.9c1.1,0.1,1.7-0.6,2.5-0.6c0.9,0,1.9,0.9,1.8,2c-0.1,1-1.5,2.7-2.1,3.5
		c-2.3,3.2-5.4,6.2-8.2,8.5c-1,0.1-1.8,0.5-1.9,1.4c-0.2,1.3,0.7,1.8,1.6,2.3c-3.7,1.3-3.9-3.9-1.4-4.7c-0.9-1.3-3.7-1.4-4.4,0.2
		c-0.1,1.6,0.6,2.4,1.6,2.8c-2.3,0.5-3.6-1.5-2.9-3.4c0.7-2,4.2-2.5,6-1.1c-0.1-1.6-0.4-3.5-1.9-3.6c-1,0-1.7,0.9-1.7,2.3
		c-1.7-2.1,1-4.3,3.3-3.4c1.3,0.5,1.7,2,2,3.5c1.8-1.5,3.6-3.9,4.4-6.8c-3-0.3-5.1-3-8-3.2c-1.8-0.1-3.2,0.5-4.6,1.4
		C125.7,94,127.8,92.3,131.3,92.1z"/>
</g>
<g id="HATCH_41_">
	<path class="st0" d="M81.3,103.5c0.9-0.2,2.1-0.1,2.7,0.4C85.3,100.9,80.8,100.4,81.3,103.5z M78.1,101.4c-0.1,1,0.8,2.1,1.9,2.2
		c0.1-1,0.1-2.1,0.6-2.7C79.9,99.9,78.2,100.2,78.1,101.4z M64,115.2c2.1-1.4,3.9-3.1,5.3-5.1c0.8,0.1,1.5-0.1,2.2-0.1
		c1.3,0,2.6,0.7,3.6,0.5c0.6-0.1,1.7-1.2,2-1.6c0.8-1.1,1.3-2.7,1.9-3.8c-0.8-1.1-2.9-2.6-2.1-4.8c0.6-1.7,3.8-1.9,4.1,0.3
		c1.7-1.5,4.7-0.5,4.2,2.2c-0.1,0.6-0.6,0.9-0.9,1.5c0.6,1.6-0.4,2.9-1.4,3.5c0.1-0.6,0.7-2.7-0.7-2.8c-1.6-0.1-1.8,2.3-2.3,3.7
		c-0.6,1.8-2.4,5.4-4.4,5.7c-0.9,0.1-1.6-0.6-2.4-0.6c-1.1-0.1-2.3,0.4-3.4,0.7C68,114.7,66.5,115.2,64,115.2z"/>
</g>
<g id="HATCH_42_">
	<path class="st0" d="M87.5,103.7c0.5-0.2,1.8-0.6,2.7-0.3C90.7,100.5,86.3,100.8,87.5,103.7z M93.4,101.1c-0.3-1.1-2.1-1-2.6-0.1
		c0.6,0.5,0.6,1.6,0.7,2.6C92.7,103.4,93.7,102.2,93.4,101.1z M102.3,110c1.3,2.1,3.2,3.7,5.3,5.1c-2.3,0.1-4-0.4-5.8-0.9
		c-1-0.3-2.2-0.8-3.3-0.7c-0.8,0-1.7,1-2.9,0.5c-1.9-0.6-3.4-3.9-4.1-5.9c-0.4-1.2-0.6-3.3-2-3.3c-1.6,0-1.2,2.1-0.7,2.8
		c-1.1-0.4-2.2-2-1.5-3.4c-2.5-2,0.2-6.1,3.2-3.8c0.4-1.7,2.6-1.9,3.7-0.9c1.8,1.7-0.4,4.4-1.6,5.4c0.8,2.3,1.9,4.4,3.8,5.6
		C98.3,110.2,100,109.9,102.3,110z"/>
</g>
<g id="SPLINE_2_">
	<path class="st2" d="M80.7,100.9c-0.6,0.5-0.5,1.7-0.6,2.7c-1.1-0.1-2-1.2-1.9-2.2C78.2,100.2,79.9,99.9,80.7,100.9z"/>
</g>
<g id="SPLINE_3_">
	<path class="st2" d="M91.6,103.6c-0.2-0.9-0.1-2.1-0.7-2.6c0.5-0.9,2.3-1,2.6,0.1C93.7,102.2,92.7,103.4,91.6,103.6z"/>
</g>
<g id="SPLINE_4_">
	<path class="st2" d="M84,103.8c-0.6-0.4-1.7-0.6-2.7-0.4C80.8,100.4,85.3,100.9,84,103.8z"/>
</g>
<g id="SPLINE_5_">
	<path class="st2" d="M90.3,103.5c-1-0.3-2.3,0.1-2.7,0.3C86.3,100.8,90.7,100.5,90.3,103.5z"/>
</g>
<g id="HATCH_43_">
	<path class="st0" d="M56.1,128.9c0.8,0.5,1.5,1.1,2.2,1.7c-0.6,1-1.9-0.3-2.7-0.5C55.7,129.7,55.9,129.3,56.1,128.9z"/>
</g>
<g id="HATCH_44_">
	<path class="st0" d="M113.5,128.9c0.8,0.6,1.6,1.1,2.2,1.8c-0.1,0.1-0.2,0.2-0.3,0.4c-1-0.1-1.6-0.6-2.5-0.9
		C113.1,129.7,113.3,129.3,113.5,128.9z"/>
</g>
<g id="HATCH_45_">
	<path class="st0" d="M30.1,131.3c0.2,1.3,0,2.9,0.1,4.3c1.9,0.2,4.3,0,6.1,0.2c0.1-1-0.1-2.6-0.1-3.8c0.6-0.1,1.1-0.7,1.6-0.5
		c0.2,0.5-0.1,1-0.2,1.6c-0.2,2.3,0.1,5.3,0.3,7.4c0.2,0.3,0.4-0.3,0.7-0.2c0,0.4,0.2,0.5,0.2,0.9c-1.3,0-1.5,1.3-2.7,1.1
		c0.4-1.5,0.3-3.5,0.2-5.3c-1.7-0.5-4.2-0.6-6.2-0.4c0,1.7,0,3.4,0,5.1c-0.6,0.1-1.4,1-1.9,0.4c-0.2-0.1,0.3-0.5,0.4-0.8
		c0.8-2.4,0.2-7.1-0.2-9.4C29,131.7,29.6,131.5,30.1,131.3z"/>
</g>
<g id="HATCH_46_">
	<path class="st0" d="M55.8,135.8c0.6,0,1.2,0,1.7,0c-0.2-0.9-0.5-1.6-1-2.2C56.4,134.5,56,135,55.8,135.8z M62,141.2
		c0.3,0,0.6-0.3,0.8-0.1c0,0.2,0.1,0.4,0.2,0.5c-0.7,0.3-1.8,0.3-2.6,0.6c-0.6-1.9-1.5-3.6-2.3-5.4c-0.8-0.2-1.9-0.4-2.8-0.2
		c-0.9,1.3-1.6,2.9-2.3,4.5c0,0.3,0.6-0.1,0.5,0.2c0,0.2,0,0.4,0,0.6c-0.9,0-1.8,0-2.7,0c2.1-3.3,4.3-6.5,5.5-10.7
		c0.2-0.1,0.5,0.1,0.5-0.1C58.5,134.7,60,138.2,62,141.2z"/>
</g>
<g id="HATCH_47_">
	<path class="st0" d="M99.3,131.3c0.2,1.3,0,2.9,0.1,4.3c1.8,0.2,4.2-0.1,6,0.2c0.3-1.2-0.1-2.6,0-3.8c0.6-0.1,1-0.7,1.6-0.5
		c-0.3,2.6-0.2,6.2,0.1,9.1c0.2,0.3,0.4-0.3,0.7-0.2c0,0.4,0.1,0.6,0.2,0.9c-1.3-0.1-1.5,1.3-2.7,1.1c0.4-1.6,0.2-3.5,0.2-5.3
		c-1.7-0.5-4.2-0.6-6.2-0.4c0,1.7,0,3.4,0,5.1c-0.6,0.1-1.4,1.1-1.9,0.4c-0.2-0.1,0.3-0.5,0.4-0.8c0.8-2.4,0.2-7-0.2-9.4
		C98.3,131.7,98.8,131.5,99.3,131.3z"/>
</g>
<g id="HATCH_48_">
	<path class="st0" d="M113.1,135.8c0.6,0,1.2,0,1.8,0c-0.2-0.8-0.5-1.6-1-2.2C113.7,134.4,113.4,135.1,113.1,135.8z M119.5,141.2
		c0.3,0,0.6-0.3,0.7-0.1c0.1,0.2,0.2,0.4,0.2,0.6c-0.8,0.2-1.7,0.3-2.5,0.5c-0.7-1.9-1.5-3.6-2.3-5.4c-0.8-0.2-1.9-0.4-2.8-0.2
		c-0.9,1.3-1.6,2.9-2.3,4.5c0,0.3,0.6-0.1,0.5,0.2c0,0.2,0,0.4,0,0.6c-0.9,0-1.8,0-2.7,0c2-3.4,4.3-6.5,5.5-10.7
		c0.2-0.1,0.5,0.1,0.5-0.1C115.9,134.7,117.5,138.2,119.5,141.2z"/>
</g>
<g id="HATCH_49_">
	<path class="st0" d="M133.8,135.6c1.8,0.2,4.2,0,6,0.2c0.1-1.1,0-2.7-0.1-3.8c0.6-0.1,1.1-0.7,1.6-0.5c0.2,0.6-0.1,1.3-0.2,2.1
		c-0.1,2.3,0.2,5,0.3,7c0.2,0.2,0.4-0.4,0.7-0.3c0,0.3,0.1,0.5,0.2,0.7c-0.9,0.3-1.5,1.3-2.5,1.3c-0.3-0.3,0.1-0.9,0.1-1.4
		c0.1-1.3-0.1-2.9-0.1-4c-1.9-0.4-4.2-0.5-6.2-0.3c0,1.8,0,3.5,0.1,5.1c-0.7,0.1-1.4,1-2.1,0.4c1.2-2.5,0.9-7.4,0.3-10.2
		c0.6-0.2,1.2-0.3,1.6-0.6C134.1,132.3,133.7,134.2,133.8,135.6z"/>
</g>
<g id="HATCH_50_">
	<path class="st0" d="M45.6,141.1c4.2-0.1,4.5-6.1,1.9-8.1c-0.7-0.6-1.9-0.9-2.9-0.7C39.9,132.9,40.6,141.2,45.6,141.1z M44.2,131.5
		c3.6-0.5,6.2,1.5,6.6,4c0.5,3.8-2,6.7-5.7,6.7c-2.7,0-5.1-1.8-5.3-4.9C39.6,133.9,41.6,131.8,44.2,131.5z"/>
</g>
<g id="HATCH_51_">
	<path class="st0" d="M72.4,131.4c0.4,2.8-0.5,7.4,0.2,10.5c-0.2,0.1-0.6,0.1-0.7,0.3c-2-2.9-4.4-5.4-7-7.8c0,2.4-0.1,4.8,0.3,6.9
		c0.1,0.1,0.8,0,1.1-0.1c0,0.3,0,0.5,0,0.8c-1-0.1-1.7,0.2-2.7,0.1c0.1-2.5,0.5-6,0.3-8.5c-0.1-0.7-0.6-1.8,0-2
		c0.6-0.3,1.5,1.2,1.9,1.6c1.8,1.9,3.7,3.8,5.5,5.6c0-2.4,0.2-5.6-0.5-7C71.4,131.8,71.8,131.5,72.4,131.4z"/>
</g>
<g id="HATCH_52_">
	<path class="st0" d="M84,131.7c-0.4,0.8-0.8,1.5-1.1,2.3c-0.5-0.3-0.8-0.9-0.2-1.3c-4.1-1.7-7.5,0.6-7,4.6c0.3,3.2,5.7,6.2,6.8,1.7
		c0.3-0.4-0.9-0.6-0.6-1c1.2,0,2.6-1.2,3.4-0.1c-2.8,0.3-1.5,4.6-4.1,5c-0.3-0.4,0.4-0.6,0.5-1.1c-4.4,1-7.3-1.3-7.3-4.8
		C74.1,132.1,79,130.5,84,131.7z"/>
</g>
<g id="HATCH_53_">
	<path class="st0" d="M129.8,131.4c0.3,3-0.5,7.4,0.2,10.5c-0.3,0.1-0.6,0.2-0.9,0.3c-1.7-3.1-4.4-5.3-6.8-7.8
		c0,2.3-0.1,4.9,0.3,6.9c0.1,0.1,0.8,0,1.1-0.1c0,0.3,0,0.5,0,0.8c-1-0.1-1.7,0.2-2.7,0.1c0.1-3.2,0.6-7.4-0.1-10.3
		c0.9-0.6,1.6,0.7,2.1,1.2c1.8,1.8,3.8,4.1,5.7,5.9c0-2.4,0.2-5.5-0.5-7C128.8,131.7,129.2,131.5,129.8,131.4z"/>
</g>
<g id="HATCH_54_">
	<path class="st0" d="M96.7,131.5c0,0.6-0.3,0.9-0.5,1.4c-1-0.1-1.8-0.5-3-0.4c-0.3,2.8-0.2,6.3-0.1,9.2c-0.6,0.1-1.3,0.6-1.9,0.5
		c0-0.7,0.5-1.6,0.5-2.7c0.1-2.2,0.1-4.8,0-7c-1.4-0.1-2.4,0.2-3.6,0.4c0.2-0.5,0.5-0.9,0.7-1.4C91.3,131.7,94.3,131.7,96.7,131.5z"
		/>
</g>
<g id="SPLINE_6_">
	<path class="st2" d="M44.5,132.3c1-0.1,2.2,0.2,2.9,0.7c2.6,2.1,2.2,8.1-1.9,8.1C40.6,141.2,39.9,132.9,44.5,132.3z"/>
</g>
<g id="SPLINE_7_">
	<path class="st2" d="M56.5,133.6c0.5,0.6,0.8,1.3,1,2.2c-0.6,0-1.2,0-1.7,0C56,135,56.4,134.5,56.5,133.6z"/>
</g>
<g id="SPLINE_8_">
	<path class="st2" d="M114,133.6c0.5,0.6,0.8,1.4,1,2.2c-0.6,0-1.2,0-1.8,0C113.4,135.1,113.7,134.4,114,133.6z"/>
</g>
<g id="HATCH_55_">
	<path class="st0" d="M46.8,144.2c0.5,0,1,0,1.5,0c0.1,1.7,3,2,3,0c0.5,0,0.9,0,1.4,0C52.6,147.6,46.9,147.7,46.8,144.2z"/>
</g>
<g id="HATCH_56_">
	<path class="st0" d="M48,155c1.2-0.1,2.1,0.1,3.2,0.1c-0.5-1.4-0.9-2.9-1.8-3.8C49,152.6,48.5,153.8,48,155z M57.9,163.5
		c0.4,0,0.8-0.3,1.2-0.1c0,0.3,0.2,0.4,0.2,0.7c-1.3,0.2-2.5,0.4-3.7,0.7c-1.1-2.9-2.3-5.7-3.7-8.3c-1.2-0.3-3.2-0.6-4.6-0.2
		c-1.3,2.2-2.5,4.5-3.5,7c0.1,0.3,0.7,0.1,0.8,0.3c0,0.2,0,0.5,0,0.7c-1.2,0-2.5,0-3.7,0c3.2-5,6.6-9.8,8.3-16.2
		c0.3,0,0.8-0.2,0.9-0.1C52.4,153.6,54.9,158.8,57.9,163.5z"/>
</g>
<g id="HATCH_57_">
	<path class="st0" d="M26.6,148.1c0.1,0,0.1,0,0.2,0c0,2.2,0,4.3,0,6.5c3,0.3,6.5,0.2,9.8,0.3c0-2-0.2-3.9-0.2-5.9
		c0.8-0.2,1.4-0.7,2.2-0.8c0.4,0.5,0,1-0.1,1.6c-0.7,3.9,0.2,9,0.3,12.9c0.3,0.2,0.8-0.7,1.2-0.5c0,0.4,0.2,0.6,0.2,1.1
		c-1.7,0.1-2.1,1.8-3.7,1.7c0.6-2.4,0.4-5.7,0.2-8.4c-2.9-0.5-6.7-0.9-9.9-0.4c0,2.7,0.2,5.1,0.1,7.9c-0.9,0.3-1.9,1.4-2.8,0.7
		c1.6-3.1,1.3-11.8,0.4-15.8C25.2,148.7,25.9,148.4,26.6,148.1z"/>
</g>
<g id="HATCH_58_">
	<path class="st0" d="M74.2,164.1c-0.2,0.3-0.8,0.2-1.1,0.5c-3-4.7-7-8.3-10.9-12.2c0.1,3.8-0.2,7.9,0.5,11.1c0.4,0.2,1-0.2,1.6-0.1
		c0,0.3,0,0.6,0,0.9c-1.2,0.2-2.6,0.1-3.8,0.2c0.2-4.9,1.1-11.3-0.2-15.7c0.3-0.1,0.5-0.3,0.6-0.5c4.1,3.6,7.6,7.9,11.5,11.7
		c-0.1-3.9,0.3-8.7-0.9-11.2c0.9-0.2,1.7-0.5,2.5-0.7C74.1,153,73.1,159.4,74.2,164.1z"/>
</g>
<g id="HATCH_59_">
	<path class="st0" d="M91.7,148.6c-0.4,1.3-1.2,2.2-1.6,3.5c-0.4-0.2-0.5-0.7-0.8-1c0-0.5,0.5-0.5,0.6-0.9c-1.3-0.4-2.2-0.7-3.3-0.8
		c-4.8-0.4-7.9,2.6-7.7,7.3c0.2,3.5,3.1,7,7,6.9c2.4-0.1,2.8-2.1,3.7-3.8c-0.3-0.5-1.3-0.7-1.2-1.3c1.8-0.1,3.9-1.8,5.1-0.3
		c-2.8,0.7-3.3,3.9-4,6.7c-0.8,0.3-1.4,1.1-2.3,1c-0.1-0.6,0.7-0.9,0.8-1.6c-3,0.8-7.1,0.1-8.8-1.6c-3-2.9-3.3-9-0.2-12
		C82,148,86.8,147.6,91.7,148.6z"/>
</g>
<g id="HATCH_60_">
	<path class="st0" d="M102.4,148.1c0.2,4.9-0.1,10.2-0.1,15.3c2,0,3.7-0.2,5.1-1c0.5-0.3,0.7-0.6,1.3-0.2c-0.7,1.3-1.8,2.2-2.6,3.4
		c-0.4-0.1-1,0-1.3-0.2c-0.4-0.2,0.7-0.5,0.7-0.9c-1.9-0.3-4.2,0.1-5.8,0.1c-0.3-0.5,0.2-0.8,0.4-1.2c0.8-2.3,0.6-6.2,0.5-9.3
		c-0.1-1.9-0.3-3.7-0.4-5.2C101,148.6,101.7,148.4,102.4,148.1z"/>
</g>
<g id="HATCH_61_">
	<path class="st0" d="M111.7,156.8c0.3,3.4,2.9,6.4,6.3,6.5c4.1,0.1,6.3-3.4,5.9-7.6c-0.2-2.4-1.9-4.8-3.5-5.8
		c-0.9-0.5-2.5-0.9-4-0.6C113.2,149.8,111.4,153.1,111.7,156.8z M116.5,148.2c3.5-0.4,6.1,0.7,7.5,2.1c3.2,3.1,2.8,9.9-1,12.6
		c-5.4,3.9-12.9,0.8-13.5-5.2c-0.5-4,1.4-7.1,3.8-8.5C114.1,148.7,115.1,148.4,116.5,148.2z"/>
</g>
<g id="HATCH_62_">
	<path class="st0" d="M142.2,148.1c0.1,0,0.1,0,0.2,0c-0.2,5-1,11.3,0,16.1c-0.4,0.1-0.8,0.3-1.2,0.4c-2.9-4.8-6.9-8.3-10.7-12.2
		c0.1,3.7-0.3,8.1,0.5,11.2c0.5-0.1,1-0.2,1.6-0.2c0,0.3,0,0.6,0,0.9c-1.2,0.1-2.6,0.1-3.8,0.2c0.2-5,0.8-11.4-0.1-15.8
		c0.2-0.1,0.4-0.2,0.5-0.4c0.7,0.1,1.1,0.9,1.6,1.4c3.3,3.3,6.6,6.9,10,10.2c-0.2-3.8,0.5-8.4-0.9-11
		C140.5,148.6,141.5,148.4,142.2,148.1z"/>
</g>
<g id="HATCH_63_">
	<path class="st0" d="M160.1,148.6c-0.6,1.2-1.2,2.3-1.7,3.5c-0.4-0.3-0.5-0.7-0.8-1.1c0.1-0.4,0.5-0.5,0.6-0.8
		c-5.6-2.3-11,0.1-11,6c0,3.7,2.9,7.4,7,7.3c2.4-0.1,2.8-2.1,3.7-3.7c-0.1-0.7-1.3-0.8-1.2-1.4c1.8-0.1,3.8-1.7,5.2-0.4
		c-2.8,0.8-3.3,3.9-4.1,6.8c-0.7,0.3-1.4,1.1-2.2,1c-0.2-0.6,0.7-0.9,0.7-1.6c-0.6,0-1.1,0.2-1.6,0.3c-5.9,0.6-9.7-2.7-9.7-7.8
		C145.1,149.2,152.4,146.9,160.1,148.6z"/>
</g>
<g id="HATCH_64_">
	<path class="st0" d="M22.5,148.4c-0.2,0.6-0.4,1.2-0.6,1.8c-1.4-0.4-2.9-0.7-4.8-0.6c-0.4,4.4-0.4,9.9-0.1,14.4
		c-0.9,0.3-1.8,0.6-2.8,0.8c-0.3-0.6,0.4-1,0.5-1.5c0.7-1.9,0.3-5.1,0.5-8c0.1-1.8,0-3.6,0-5.7c-1.9-0.3-3.9,0.2-5.5,0.5
		c0.3-0.7,0.6-1.3,1-1.8C14.4,148.7,18.6,148.5,22.5,148.4z"/>
</g>
<g id="SPLINE_9_">
	<path class="st2" d="M116.4,149.3c1.5-0.2,3.1,0.1,4,0.6c1.6,0.9,3.3,3.4,3.5,5.8c0.3,4.2-1.8,7.7-5.9,7.6c-3.4-0.1-6-3.1-6.3-6.5
		C111.4,153.1,113.2,149.8,116.4,149.3z"/>
</g>
<g id="SPLINE_10_">
	<path class="st2" d="M49.4,151.3c0.9,1,1.3,2.4,1.8,3.8c-1.1,0-2-0.2-3.2-0.1C48.5,153.8,49,152.6,49.4,151.3z"/>
</g>
<g id="SPLINE_11_">
	<path class="st2" d="M39.1,55.2c-0.5,1.8-0.9,4.2-2.2,4.9c-0.9-2.6-1.8-6-2.6-9.1c-0.2-1-0.5-2.5-1-2.9C32,47,30.9,48.3,30.2,49
		c-3.2,3.1-5.9,6.5-8,10.3c0.3,1.1-0.2,2.1-1.1,2.2c-1.2,0.2-1.4-0.8-1.7-0.7c-0.1,1.9,1.8,2.5,3,1.6c0.7-0.5,0.8-1.3,1.2-2
		c1.9,0.5,2.4,4.4-0.5,3.8c-0.6-0.1-0.9-0.7-1.2-0.5c0.2,1.8,2.8,2.3,3.8,1.1c1.5-1.6,0.2-4.2-0.9-4.8c1.6-0.6,4.3-0.5,3.9,1.5
		c-0.1,0.8-1,0.9-1.5,1.5c1.4,0.3,2.4-0.5,2.6-1.5c0.5-2.5-2-3.9-4.6-3.1c1.5-2.2,3.2-4.2,5.9-5.2c1.4,1.5,1.3,4.2,1.4,6.8
		c0.2,3.5,1.8,8.2,5.6,6.7c1.3-0.5,2.4-2.2,3.2-3.4c1-1.4,1.8-2.8,2.2-4.5c2.1,1.5,5.8,3.9,5.3,8c-0.3,2.1-2.2,3.8-4.5,4
		c-2.8,0.3-4.8-0.9-7-1.6c-1.8-0.7-3.7-1.1-5.9-1.2c-8.3-0.4-14.6,3.2-13.9,12.4c0.7,8.4,6.9,12.5,16.8,12.1
		c1.6-0.1,3.6-0.5,5.7-0.2c-1.9,0.6-3,1.7-4.4,2.7c-1.2,0.9-3,2.4-5,2.2c-0.8-0.1-1-0.6-1.7-0.6c-0.9,0-2,1-1.7,2.3
		c0.2,0.9,1.4,2.3,2.2,3.3c1.6,2.2,3.2,4,5.1,5.9c1,0.9,2.1,2.1,3,2.6c0.4,0.2,0.9,0.1,1.2,0.4c1.4,1,0.5,3.1-1,3.2
		c1.9,0.9,3.7-0.7,3.1-2.7c-0.2-0.8-1.7-1.8-1.6-2c0-0.2,1.1-0.8,1.6-0.9c3.1-0.8,3.5,3.2,1.1,4.1c2.5,0.4,3.6-2,2.7-3.7
		c-1-1.9-4.4-2-5.9-0.8c0.2-1.6,0.4-3.6,2-3.6c0.9,0,1.6,0.9,1.6,2.3c0.6-0.2,0.6-1.1,0.5-1.9c-0.3-0.3-0.3-0.7-0.5-0.9
		c-2.1-2.1-5.4,0.3-5.3,3c-1.8-1.9-3.7-4.1-4.3-7c3.4-0.3,5.3-3.4,9.1-3.1c1.4,0.1,2.4,0.7,3.5,1.4c-0.1,1.7-0.4,3-0.5,4.6
		c-0.4,8.8,4.1,14.6,11.5,14.5c3,0,5.3-0.8,7.6-2.1c2.4,0,4-0.4,5.8-0.9c1.1-0.3,2.3-0.8,3.4-0.7c0.7,0,1.5,0.8,2.4,0.6
		c2-0.3,3.8-3.9,4.4-5.7c0.5-1.4,0.7-3.8,2.3-3.7c1.5,0.1,0.8,2.2,0.7,2.8c1-0.6,2-1.9,1.4-3.5c0.3-0.5,0.8-0.9,0.9-1.5
		c0.5-2.6-2.5-3.7-4.2-2.2c-0.3-2.2-3.5-2-4.1-0.3c-0.8,2.2,1.3,3.7,2.1,4.8c-0.6,1.2-1.1,2.8-1.9,3.8c-0.3,0.4-1.4,1.5-2,1.6
		c-1,0.2-2.3-0.5-3.6-0.5c-0.7,0-1.4,0.2-2.2,0.1c3.4-4.7,2.2-13.7-0.7-17.9c3.9-0.7,5.8-3.5,7-7c0.4-1.1,1-2.3,0.7-3.6
		c-0.9,0.2-1.3,1.4-1.6,2.3c-0.4,0.9-0.7,2.1-1.7,2.4c-0.6,0.2-1.4-0.1-2.1,0.1c-0.5,0.2-1.1,1-1.6,1.4c-2.5,1.9-8,3.3-10.3,0.5
		c3.6,2,9.4,0.7,11.1-2.2c-1.2,0-1.8-0.5-2.7-0.8c-0.9,2.5-6.7,4-8.6,1.5c-0.4-0.5-0.8-1.4-0.5-2.4c0.4-1.5,3.7-2.2,3.3,0.2
		c-0.7-0.3-0.2-1-1-0.9c-0.9,0.1-0.6,1.6-0.2,1.9c0.5,0.3,1.6,0.2,2-0.2c1.4-1.2-0.1-3.2-1.2-3.4c-1.9-0.4-3.4,1.1-4.2,2.5
		c0.6-3.5-4.1-5.9-5.9-3.3c-0.5,0.7-0.4,2.6-1.3,2.7c-0.7,0.1-1-1-1.5-1.8c-0.4-0.7-0.9-1.6-1.9-1.5c-1.4,0.2-1,2.2-2.2,2.6
		c-0.9-0.3-0.8-1.7-1.7-1.8c-0.9-0.1-0.8,0.6-1.6,0.9c-0.4-0.1-0.5-0.5-1-0.5c-0.6,0.8-1.5-0.4-1.9,0.5c0.8-0.3,1.4,0.7,2.1-0.2
		c1,1.7,2.1-1.3,2.9,0.2c-0.8-0.8-1.4,0.4-2,0.5c-0.5-0.1-0.8-0.9-1.4-0.4c0.5,0.1,1.3,1,1.9,0.6c-0.6,0.6-1.1-0.1-1.6-0.4
		c0.3,1.3,1.5,0.8,2.4,0.6c0.5,1.2,1.6,2.4,3.1,1.6c0.7-0.4,0.6-1.3,1.4-1.6c1.1,1.2,1.8,4,4.2,2.9c1.1-0.5,1.3-3.1,2.3-3.2
		c1.5-0.1,1.3,3.8,2.2,5c0.8,1.1,1.7,1.4,3,1.6c1.3,1.3,2.9,2.3,5,2.7c-0.5,1.3,0.6,2.2,0.8,3.3c0.4,0.1,0.5-0.7,0.7-0.2
		c-0.1,0.4-0.7,0.4-0.8,0.8c0.2,0.8,0.5,1.4,0.6,2.3c0.3,0,0.6-0.5,0.7-0.3c-1.2,0.3-0.3,2.4-0.7,3.3c0.5,0.2,0.9-0.6,1-0.2
		c-0.2,0.3-0.8,0.2-0.9,0.5c-0.3,0.7-0.1,2.1-0.5,2.7c0.4,0,1.1-0.2,1.3-0.2c0,0.5-0.8,0.3-1.1,0.5c-0.5,0.6-0.9,1.3-1.4,1.9
		c0.4,0.3,1.1,0.1,1.5,0.1c0,0.7-1,0.8-1.5,0.4c-0.5,0.4-1,0.8-1.6,1.1c0.1,0.6,1,0.7,1,1.1c-0.5,0-0.7-0.6-1.3-0.6
		c-1-0.1-1.8,1-2.7,1.1c0,0.6,0.7,0.6,0.9,1.1c-0.7,0.1-1-0.8-1.5-1.3c-0.6,0.2-1.5,0.5-2.2,0.3c-0.1,0.7,0.5,1.1,0.5,1.4
		c-0.6,0.1-0.3-0.8-0.5-1.1c-0.3-0.5-1.1-0.5-1.6-0.7c-0.4-0.2-0.5-0.6-0.8-0.5c-0.3,0.4,0.1,1.4,0,1.6c-0.2-0.2-0.5-0.3-0.6-0.5
		c1.3-1.4-0.7-2-1-3.2c-0.5,0.2-0.5,0.7-0.9,0.9c-0.1-0.6,0.5-0.8,0.5-1.5c0.1-0.6-0.3-1.2-0.2-2c-0.5,0-0.7,0.7-1.1,0.5
		c-0.2-0.8,0.5-0.7,0.7-1.1c0-0.7,0.2-1.3,0.3-2c-0.4-0.1-0.9,0.2-1,0.1c1.4-0.4,1-2.2,0.9-3.7c-0.3,0-0.6,0.3-0.7,0.2
		c0.1-0.4,0.6-0.5,1-0.5c0-0.9,0.1-2-0.1-2.7c-0.4,0-0.6,0.5-0.8,0.3c0.3-0.1,0.5-0.3,0.7-0.5c0.2-1.4-0.4-2.1-0.5-3.1
		c-0.6,0-0.5,0.7-0.9,0.8c-0.2-0.7,0.5-0.6,0.6-1.1c0.2-1.2-1.5-1.9-1.8-2.8c-0.2,0.4-0.2,1-0.5,1.4c-0.5-0.4,0-0.8-0.1-1.4
		c-0.2-1-1.5-1.2-2.2-1.7c-0.3,0.5,0.3,1.1,0.1,1.5c-0.2-0.1-0.5-0.2-0.6-0.4c0-0.3-0.1-0.6-0.1-1c-0.7-0.3-1.4-0.7-2.3-0.8
		c-0.2,0.5,0.4,1.1,0,1.3c0-1.9-2.4-1.3-3.8-1.1c0,0.5,0.5,0.8,0.5,1c-0.5-0.2-0.7-0.6-0.8-1.2c-0.9,0.1-1.6,0.4-2.7,0.4
		c0,0.5,0.8,0.9,0.5,1.1c-0.3-0.1-0.3-0.6-0.5-0.8c-0.8-0.5-2.2,0-3.1-0.4c0.1,0.6,0.4,1,0.7,1.3c-0.2-0.1-0.7,0.1-0.7-0.1
		c0-0.4,0-0.7-0.1-0.9C32,86,30.3,86.5,29.6,86c-0.1,0.6,0.4,1.1,0.3,1.4c-0.6,0.1-0.4-0.6-0.5-1c-0.6-0.6-1.4-0.9-2.2-1.3
		c-0.2,0.6,0,1.1,0.2,1.6c-0.7,0-1.1-0.9-0.6-1.6c-0.4-0.5-0.8-0.9-1.1-1.6c-0.6,0-0.6,1.1-1.1,0.9c1.3-1,0.1-2.6-0.1-3.8
		c-0.6-0.1-0.8,0.6-1.1,0.5c0.3-0.4,0.7-0.7,1.3-0.8c0-0.8-0.1-1.8,0.2-2.4c-0.4,0-1,0.3-1.2,0.2c1.6-0.1,1.6-1.8,2.7-2.5
		c-0.2-0.2-0.8-0.2-1.1-0.4c0.5-0.3,0.8,0.2,1.4,0.1c0.7-0.1,1.1-1.2,2-1.1c0.2-0.2-0.7-0.5-0.5-0.8c0.7,0.6,1.9,0.4,3,0.4
		c0.2-0.4-0.4-0.6-0.2-0.8c0.5-0.1,0.7,0.1,0.6,0.5c0.9,0,1.5,0.3,2.2,0.5c0.1-0.3-0.1-0.8,0-0.8c0.4,1.2,2.2,1,3.5,1.3
		c0.1-0.2-0.1-0.6,0.2-0.5c0.2,0.2,0.1,0.6,0.1,0.9c0.9,0.1,1.7,0.3,2.7,0.5c0.1-0.3-0.3-0.5,0-0.6c0.2,1.4,2.2,0.9,3.3,1.4
		c0.1-0.4-0.5-0.8-0.1-0.8c0.2,0.3,0.3,0.6,0.6,0.8c1.2,0.2,2-0.4,2.9-0.2c0.1-0.4-0.6-0.6-0.4-0.8c1,0.7,2.4,0.1,3.4-0.3
		c0-0.5-0.6-0.3-0.6-0.7c0.4-0.4,0.7-0.2,1.1,0.1c0.6-0.5,1.6-0.7,1.9-1.5c-0.1-0.2-0.8-0.3-0.6-0.5c2,0.2,1.8-1.8,2.4-3.1
		c-0.3-0.1-0.8,0.1-0.8,0c0.2-0.3,0.7-0.4,1.2-0.4c0.1-0.9,0.2-1.8,0.2-2.8c-0.4-0.1-0.6,0.4-0.8,0.2c1.5-0.4,0.5-2.5,0.4-3.7
		c-0.5,0-0.6,0.8-0.8,0.6c0-0.5,0.5-0.6,0.5-1.1c0.1-1-1.4-1.9-1.7-2.7c-0.1,0.4-0.2,0.8-0.5,1c0.2-1.6-0.8-2.4-1.8-3
		c-0.2,0.2-0.1,0.8-0.3,1c-0.2-0.1-0.3-0.2-0.5-0.4c0.4-1.2-0.9-1.6-1.6-2.3c-0.1,0.3-0.2,0.6-0.4,0.9c0.3-1.8-1.6-2.1-2.6-2.9
		c-0.2,0.2-0.1,0.6-0.3,0.8c-0.4-0.3,0-0.9,0.2-1.3c-0.7-0.5-1.3-1-1.8-1.6c-0.2,0.2-0.3,0.9-0.5,0.7c1-1-0.4-2-0.3-3.3
		c-0.6-0.1-0.8,0.7-1,0.6c0-0.2,0-0.3-0.1-0.4c1.7-0.1,0.6-2.2,1-3.3c-0.5,0-0.9,0.5-1.2,0.4c0-0.5,0.7-0.4,0.9-0.7
		c0.3-0.7,0.9-1.4,0.9-2c-0.4-0.2-1,0.1-1.2,0c0.2-0.2,0.2-0.6,0.5-0.6c0.3,0,0.4,0.2,0.7,0.2c0.5-0.4,0.9-0.8,1.6-1
		c0.1-0.6-0.9-0.6-0.7-1c1,1.2,2.3-0.1,3.7-0.2c0-0.4-0.5-0.8-0.4-0.9c0.5,0.1,0.6,0.6,0.6,1.2c0.5,0,1,0,1.4,0.1
		c-1.5,1.1-4.7,2.1-4.3,4.7c0.4,2.4,3.7,4.3,5.9,5.5c2.8,1.5,5.5,2.6,8,3.4c1.6,1.3,0.1,4.5-2.1,3.2c0.3,0.6,0.7,1.1,1.3,1.3
		c2.2,0.5,3-1.9,2.6-3.7c1.8,0.1,3,0.8,2.9,2.8c-0.5,0.8-1.5,1.4-2.8,1.1c0.8,1.5,3.7,0.9,4.1-0.8c0.5-2.4-1.4-4.1-3.7-4.3
		c0.6-1.3,3.6-2.5,3.9-0.6c0.2,0.9-0.3,1.2-0.5,1.9c2.9-1,1.1-4.5-1.6-4.4c-1.7,0.1-2.3,1.3-3.5,2c-3.9-2.1-7.7-4.2-10.4-7.4
		c0.9-1,2.2-1.6,3.7-2c0.5,0.7,1.3,1.1,1.6,2c0.2-0.4,0.3-0.8,0.5-1.1c0.3,0.4-0.1,0.7-0.1,1.2c0.3,0.9,0.9,1.6,1.6,2.2
		c0.1-0.4,0.3-0.6,0.3-1.1c0.5,0.2,0.6,0.8,0.3,1.3c0.6,0.6,1.1,1.3,2,1.6c0.1-0.3,0-0.8,0.2-1.1c-0.2,2.1,2.7,1.6,3.9,1.1
		c0.1-0.5-0.6-0.6-0.5-0.7c0.5-0.2,0.7,0.7,1.2,0.7c0.8-0.6,1.6-1.1,2.2-1.9c-0.3,0-0.6-0.1-0.8-0.3c0.2-0.2,0.5,0.2,0.9,0.1
		c1-0.5,1.4-1.7,1.9-2.7c-0.2-0.3-0.7,0.2-0.9-0.1c0.1-0.3,0.6,0,0.9-0.3c0.7-0.7,0.2-2.3,0.2-3.4c-0.2-0.2-0.6,0.6-0.7,0.4
		c-0.1-0.4,0.3-0.6,0.3-1.1c0-0.9-0.8-1.8-1.3-2.3c-0.1,0.3-0.2,0.5-0.4,0.7c-0.3-0.3-0.5-0.6-0.2-1c-0.6-0.5-1-1.2-1.7-1.6
		c-0.2,0.1-0.1,0.5-0.4,0.6c0-1.7-1.6-1.7-2.5-2.6c-0.1,0.1-0.1,0.6-0.4,0.4c0-0.5,0.4-0.5,0.5-0.9c-0.5-0.4-0.6-1.3-0.8-1.9
		c-0.1,0.1-0.6,0.4-0.6,0.3c1-0.3,0.9-1.7,1.7-2.2c-0.2-0.2-0.7-0.3-1-0.5c0.3-0.6,0.6,0.3,1.2,0.4c0.7,0.1,1.7-0.4,2.1,0
		c0.1-0.5-0.3-1-0.1-1.3c0.5,0,0.3,0.7,0.4,1.2c0.4,0.6,0.8,1.2,1.3,1.8c0.4-0.2,0.4-0.8,0.6-1.2c0.1,0.3,0.3,0.4,0.4,0.6
		c-0.1,0.4-0.4,0.5-0.5,0.9c0.3,0.6,0.5,1.4,0.8,2c0.6,0,0.7-0.9,1-0.8c-1.2,1.8,1,2.9,2.3,3.3c0.3-0.2-0.1-0.9,0.1-1
		c0.4,0.2,0.2,1,0.3,1.6c0.9,0.2,2.1,0.2,3.1,0.1c0-0.4-0.7-0.6-0.5-1c0.2,0.3,0.3,0.6,0.5,0.7c1.7,0.2,2.2-1,3.2-1.6
		c-0.2-0.3-0.8-0.2-1.1-0.4c0.3-0.4,0.6,0.1,1.2,0c1-0.6,1.1-2,1.5-3.1c-0.3-0.1-0.6,0.4-0.8,0.1c1.1-0.7,0.6-2.6,0.1-3.6
		c-0.4,0-0.3,0.4-0.5,0.5c-0.3-0.5-0.3-0.6-0.3-1c-0.4-0.5-0.9-1-1.3-1.6c-0.4-0.1-0.2,0.4-0.5,0.4c0.1-1.6-1.2-1.8-1.6-2.9
		c-0.1,0.1-0.3,0.4-0.4,0.2c0-0.4,0.4-0.3,0.6-0.5c-0.2-0.9,0.4-1.3,0.5-1.6c0.7,0.3,1.8,0.2,2.4,0.6c0.2-0.7-0.4-1.1-0.3-1.5
		c0.2,0.1,0.5,0,0.5,0.2c-0.1,0.3-0.1,0.7-0.1,1.1c0.6,0.8,2.3,0.8,3.3,0.9c-0.2-0.3-0.6-1-0.5-1.3c0.7-0.1,0.3,0.8,0.7,0.9
		c1.3,0.5,2.6-0.2,3.1-1.1c-0.3-0.2-0.9-0.1-1.3-0.3c0.4-0.3,1-0.6,1.6-0.5c0.4-0.7,0.6-1.6,0.5-2.7c-0.3,0-0.5,0.4-0.6,0.2
		c0.9-1.7-1.7-3.1-2.4-3.2c0.8-0.9-0.8-1.1-0.7-2.2c-0.2-0.1-0.4,0.3-0.5,0c0.8-0.2,0.7-1.3,1.8-1.2c-0.1-0.6-0.6-0.7-1-1
		c0.3,0,0.4-0.2,0.6-0.3c0.2,2.2,2.8,0.7,3.8,0.3c-0.2-0.5-1-0.4-1.3-0.8c0.5-0.2,0.7,0.2,1.2,0.2c1.1-0.3,1.2-1.6,1.1-3
		c-0.2-0.3-0.5,0.2-0.5,0c-0.1-1.3-0.1-2.7-1-3.1c0.1,2.2-0.2,4.3-1.9,4.7c-0.6,0.1-1.2-0.1-1.7,0c-2.1,0.2-3.3,1.4-3.6,3.3
		c-0.2,1.9,0.4,3.1,1.2,4.1c0.4,0.5,1.7,1.8,1.6,2.3c-0.3,1-2.3,0-2.6-0.1c-0.7-0.3-2-0.7-2.8-0.7c-2.2-0.1-3.8,1-4.6,1.9
		c-1.9,2.1-1.4,6,0.6,7.6c0.9,0.7,3.3,1.9,3,3.3c-0.1,0.4-0.7,0.9-1.3,0.9c-1.5,0-2.2-2-2.8-2.9c-1.6-2.3-3.8-5-7.9-4.6
		c-3.3,0.4-6.8,3.7-7.1,7.2c-0.4,4.2,2.3,6.7,4.4,8.2c0.7,0.5,1.5,0.9,2.3,1.4c1.1,0.8,2.1,3.3,0,3.6c-1.8,0.2-2.8-1.9-3.7-3
		c-2.4-3.3-5.5-7.2-11.5-6.9c-5.9,0.4-11.3,4.8-11.2,11.1C34.5,49.7,36.5,52.1,39.1,55.2z"/>
</g>
<g id="SPLINE_12_">
	<path class="st2" d="M132.5,55.1c2.5-3.2,4.9-5.5,4.5-10.3c-0.4-5.3-5.2-9.9-11.3-10.2c-3.9-0.2-6.9,1.8-8.7,3.5
		c-1.6,1.6-3.1,4.6-4.9,5.9c-0.9,0.7-2.5,0.5-2.7-0.7c-0.3-1.8,1.9-2.6,2.9-3.3c0.9-0.6,1.7-1.2,2.4-1.9c1.3-1.3,2.7-2.8,2.7-5.8
		c0.1-4.5-3.8-7.9-7.3-8.2c-3-0.3-4.9,1.2-6.2,2.7c-1.2,1.3-1.8,3.1-3,4.2c-0.7,0.7-2.6,0.9-2.7-0.5c-0.1-1.5,2.6-2.6,3.5-3.5
		c0.8-0.8,1.6-2.2,1.6-3.8c0-2.9-2.4-5.1-4.9-5.3c-2.2-0.2-3.8,1.1-6,1.3c-0.9-0.9,1-2.3,1.5-2.9c0.6-0.8,1-2,1-3.3
		c0-2.5-1.8-3.8-3.8-3.9c-0.5,0-1,0.1-1.6,0c-1.7-0.3-1.9-2.5-1.9-4.7c-0.9,0.5-0.9,1.9-1,3.2c-0.2,0-0.2-0.2-0.5-0.2
		c-0.2,1.4-0.1,2.7,0.9,3c0.5,0.1,0.8-0.3,1.3,0c-0.3,0.3-0.9,0.4-1.3,0.6c1,0.6,3.6,1.9,3.9-0.1c0.3,0,0.4,0.2,0.5,0.3
		c-0.4,0.2-0.9,0.3-0.9,0.9c1-0.1,1.3,1,1.6,1.3c-0.1,0-0.2-0.1-0.4-0.1c0.1,1.1-1.4,1.3-0.7,2.2c-0.4,0-1.6,0.6-2.1,1.3
		c-0.4,0.6-0.5,1.2-0.2,2c-0.3,0.1-0.6-0.5-0.6-0.1c-0.3,1,0.2,2,0.5,2.7c0.6-0.3,1.1,0.1,1.5,0.5c-0.5-0.1-0.9,0.1-1.3,0.2
		c0.5,0.8,1.7,1.5,3,1.2c0.4-0.2,0.2-1.1,0.9-1c-0.1,0.5-0.5,0.8-0.5,1.4c1.1-0.3,2.5-0.2,3.2-0.9c0.1-0.5,0-0.8-0.1-1.2
		c0.2-0.1,0.6-0.1,0.8-0.3c-0.3,0.4-0.6,0.8-0.5,1.6c0.6-0.4,1.7-0.3,2.5-0.6c-0.1,0.4,0.8,0.9,0.4,1.6c0.3,0.1,0.5,0.2,0.7,0.4
		c-0.2,0.2-0.4,0-0.5-0.1c-0.3,1.2-1.7,1.6-1.5,3c-0.2-0.1-0.2-0.5-0.5-0.5c-0.4,0.6-1.1,1-1.4,1.6c-0.1,0.3,0.2,0.8-0.3,0.9
		c-0.2-0.1-0.3-0.6-0.5-0.4c-0.3,0.7-0.7,1.5-0.5,2.7c0.1,0.4,0.7,0.5,0.7,1c-0.3,0-0.7-0.4-0.9-0.2c0.5,1,0.5,2.5,1.5,3
		c0.6,0.2,1-0.5,1.2,0.1c-0.4,0-0.7,0-1,0.2c0.8,0.7,1.4,1.7,3.1,1.6c0.4-0.1,0.4-0.8,0.7-0.6c-0.2,0.3-0.5,0.5-0.6,0.9
		c1,0.1,2.3,0.2,3.1-0.1c0.1-0.6-0.1-1.4,0.4-1.6c0,0.3,0,0.7,0,1c1.6-0.3,3.4-1.8,2.4-3.4c0.3,0.3,0.4,0.8,0.9,0.9
		c0.3-0.7,0.6-1.3,0.8-2.1c-0.2-0.3-0.4-0.6-0.5-0.9c0.3-0.1,0.3-0.5,0.5-0.6c0,0.6,0.1,1.1,0.6,1.3c0.1-0.7,0.9-1.1,1.1-1.7
		c0.1-0.4-0.2-1.4,0.5-1.3c-0.2,0.2-0.2,0.8-0.2,1.3c0.4-0.3,1.3,0,2.2,0c0.4-0.2,0.8-1,1.1-0.3c-0.6-0.1-0.9,0.2-1.1,0.5
		c0.9,0.2,1,1.6,1.4,1.9c0-0.2-0.3-0.1-0.4-0.2c0,0.9-0.3,1.5-0.7,1.9c0,0.4,0.7,0.6,0.5,0.9c-0.3,0-0.2-0.4-0.5-0.4
		c-0.6,1-2.3,0.9-2.3,2.6c-0.2-0.1-0.1-0.6-0.5-0.6c-0.6,0.4-1,1-1.6,1.5c0.2,0.6,0.1,0.8-0.4,1.1c0-0.3-0.1-0.6-0.4-0.7
		c-0.6,0.8-1.6,2.1-0.8,3.4c-0.3,0.3-0.6-0.8-0.8-0.3c0,1.2-0.4,2.5,0.2,3.3c0.4,0.3,1-0.1,1,0.5c-0.3-0.1-0.7-0.3-1-0.1
		c0.6,0.9,0.9,2.1,1.9,2.7c0.4,0.1,0.8-0.2,0.9-0.1c-0.2,0.2-0.5,0.2-0.7,0.3c0.5,0.8,1.3,1.4,2.2,1.8c0.3,0.1,0.7-0.9,1.2-0.6
		c-0.1,0.3-0.5,0.3-0.5,0.7c1.2,0.5,4.1,1.1,3.9-1c0.2,0.2,0.1,0.7,0.3,1c0.8-0.4,1.5-0.9,1.9-1.6c-0.5-0.4,0.1-1.3,0.4-1.2
		c0,0.5,0.1,0.9,0.4,1.1c0.4-0.7,1.3-1.3,1.4-2.2c0-0.5-0.4-0.7-0.1-1.1c0.3,0.2,0.3,0.8,0.6,1c0.3-0.9,1-1.3,1.6-2
		c1.6,0.4,2.9,1,3.8,2.1c-3,3-6.5,5.3-10.5,7.3c-1-0.7-1.8-2-3.6-2c-2.7,0-4.2,3.7-1.4,4.4c-0.2-0.6-0.8-1-0.6-1.8
		c0.3-1.9,3.4-0.8,3.9,0.5c-2,0.1-3.9,1.8-3.7,4c0.1,1.3,1.4,2.3,2.9,2c0.4-0.1,1.3-0.6,1.1-0.9c-3.9,0.7-3.2-4.4,0.3-3.9
		c-1.3,3.2,2.7,5.1,3.7,2.5c-2.2,1.4-3.7-2-2-3.2c3.8-1.3,9.6-3.6,12.3-6.5c0.6-0.6,1.3-1.6,1.4-2.4c0.3-2.7-2.8-3.5-4.3-4.7
		c0.4-0.1,0.9-0.1,1.4-0.1c0.1-0.5,0.1-1.2,0.7-1.2c-0.1,0.3-0.4,0.5-0.4,0.9c0.9-0.1,1.7,0.8,2.6,0.7c0.5,0,0.7-0.4,1.1-0.5
		c-0.2,0.3-0.7,0.4-0.8,0.9c1,0.2,1.2,1.3,2.4,0.8c0.2,0.1,0.5,0.5,0.4,0.6c-0.5-0.1-0.6-0.1-1.1,0c0.3,0.4,0.4,1.2,0.7,1.7
		c0.3,0.5,1.1,0.5,1.1,1.1c-0.3-0.2-0.9-0.5-1.2-0.4c0.4,0.6-0.1,1.6,0.1,2.6c0.1,0.5,1.2,0.4,0.8,1c-0.3-0.2-0.4-0.7-1-0.6
		c0.2,1.2-1,2.4-0.4,3.3c-0.2-0.2-0.3-0.4-0.4-0.7c-0.7,0.5-1.1,1.2-1.8,1.6c0,0.5,0.5,0.8,0.2,1.3c-0.2-0.1-0.2-0.5-0.3-0.7
		c-1.1,0.8-2.9,1.1-2.7,2.9c-0.1-0.4-0.2-0.6-0.4-0.9c-0.6,0.6-2,1.1-1.5,2.3c-0.2,0.1-0.5,0.5-0.6,0.4c0-0.4,0-0.7-0.1-1
		c-0.7,0.5-1.6,1-1.8,1.8c-0.1,0.4,0.3,0.9-0.2,1.2c-0.1-0.4-0.2-0.8-0.5-1c-0.4,1.1-1.6,1.4-1.6,2.9c0,0.4,0.8,0.4,0.5,0.9
		c-0.2-0.3-0.3-0.7-0.8-0.7c-0.1,1.3-1,3.2,0.4,3.7c-0.4,0-0.4-0.3-0.8-0.3c0,1,0.1,1.9,0.2,2.8c0.5,0,1.1,0,1.2,0.4
		c-0.2,0-0.5,0-0.7,0c0.3,1.4,0.6,3.4,2.4,3.1c-0.1,0.3-0.5,0.3-0.7,0.5c0.4,0.7,1.2,1.1,2,1.4c0.2-0.1,0.8-0.4,1.1,0.1
		c-0.3,0.2-0.7,0.2-0.7,0.6c0.9,0.2,1.4,0.8,2.7,0.6c0.3-0.1,0.4-0.5,0.9-0.4c-0.1,0.3-0.7,0.6-0.5,0.8c1.1-0.2,3.2,0.8,3.6-0.6
		c0.2,0.1-0.2,0.4-0.1,0.8c1.1-0.5,3-0.1,3.3-1.4c0.1,0.3-0.1,0.4-0.1,0.6c0.9-0.1,1.8-0.3,2.7-0.5c0-0.4-0.1-0.9,0.3-0.9
		c0.2,0,0,0.4,0.1,0.5c1.3-0.3,3-0.1,3.5-1.3c0.1,0.2-0.1,0.7,0.1,0.8c0.6-0.2,1.2-0.4,2-0.5c-0.1-0.6,0.3-0.6,0.8-0.5
		c-0.1,0.3-0.4,0.4-0.4,0.8c1.2,0.1,2.4,0.2,3.1-0.4c0,0.4-0.5,0.4-0.5,0.8c1-0.1,1.4,1,2.2,1.1c0.5,0,0.9-0.5,1.2-0.1
		c-0.3,0.2-0.8,0.1-1,0.4c0.9,0.8,1,2.3,2.6,2.5c-0.4,0-0.7-0.2-1.1-0.2c0.1,0.7,0.3,1.6,0.1,2.4c0.5,0.2,1.3,0.2,1.3,1
		c-0.3-0.2-0.5-0.6-1-0.6c-0.1,0.9-1,1.9-0.8,2.8c0.1,0.5,0.6,0.7,0.6,1c-0.4,0.1-0.5-0.9-1.1-0.9c-0.4,1-1.3,1.2-0.9,2.7
		c-0.3,0-0.7,0.4-0.8,0.3c0.3-0.2,0.4-1,0.2-1.5c-0.7,0.4-1.5,0.7-2.1,1.2c-0.2,0.3,0,1.2-0.6,1.1c0.2-0.4,0.2-0.9,0.4-1.4
		c-0.7,0.5-2.3,0.1-2.9,0.5c-0.2,0.3-0.1,0.8-0.3,1.1c-0.2,0-0.4,0-0.5,0c0.3-0.4,0.7-0.6,0.6-1.3c-0.8,0.4-2.1-0.1-2.9,0.3
		c-0.4,0.2-0.2,0.9-0.7,0.9c0.1-0.4,0.5-0.6,0.5-1.1c-1,0-1.7-0.2-2.6-0.4c-0.2,0.5-0.4,1.1-1,1.2c0.2-0.3,0.5-0.5,0.5-1
		c-1.6-0.4-3.8-0.6-3.9,1.1c0-0.4,0.1-0.8,0.1-1.3c-0.9,0.1-1.5,0.5-2.3,0.8c0.2,0.4-0.1,0.8-0.2,1.2c-0.3-0.1-0.4,0.2-0.6,0.2
		c0.2-0.4,0.3-0.8,0.3-1.5c-0.9,0.5-2.1,0.9-2.3,1.9c-0.1,0.4,0.5,0.8-0.1,1.1c-0.2-0.4-0.2-0.9-0.5-1.3c-0.3,1-2,1.6-1.7,2.9
		c0.1,0.5,0.8,0.4,0.5,1.1c-0.3-0.3-0.3-0.9-0.9-0.9c-0.2,1.2-1.2,3.1,0.2,3.7c-0.3-0.1-0.4-0.4-0.8-0.4c0,0.9-0.1,1.7-0.1,2.7
		c0.5,0.1,1,0.1,1.1,0.6c-0.3-0.1-0.5-0.3-0.8-0.3c0.1,1.1-0.3,2.3,0.1,3.2c0.2,0.3,0.8,0.3,0.9,0.6c-0.3-0.1-0.6-0.2-1.1-0.2
		c0.1,0.6,0.3,1.2,0.3,2c0.4,0.3,0.9,0.4,0.7,1.3c-0.2-0.3-0.6-0.6-1-0.7c0,0.8-0.4,1.7-0.2,2.4c0.1,0.5,0.9,0.7,0.5,1.2
		c-0.3-0.3-0.4-0.9-0.9-1c-0.2,1.2-2.1,1.8-1,3.2c-0.1,0.2-0.5,0.5-0.6,0.4c0.2-0.4,0.3-1.1,0-1.5c-0.4,0.4-1.7,0.8-2.4,1.2
		c-0.3,0.3,0.2,1.4-0.7,1.2c0.3-0.4,0.6-0.8,0.6-1.4c-0.8,0.2-1.7-0.1-2.4-0.3c-0.2,0.6-0.7,1.4-1.4,1.2c0.4-0.2,0.9-0.5,1-1
		c-1-0.1-1.8-1.2-2.8-1.1c-0.6,0.1-0.7,0.8-1.3,0.5c0.4-0.3,1-0.4,1.2-1c-0.7-0.2-1.2-0.7-1.7-1.1c-0.2,0.2-0.6,0.3-1,0.3
		c-0.1-0.2-0.5-0.6-0.4-0.7c0.4,0.3,0.9,0.1,1.4,0c-0.5-0.7-0.8-1.5-1.5-2c-0.4-0.1-1,0-1-0.5c0.3,0.1,1.1,0.3,1.4,0.2
		c-0.6-0.5-0.3-1.9-0.6-2.7c-0.2-0.3-0.9-0.1-0.9-0.5c0.2-0.2,0.5,0.4,1,0.3c-0.3-1.2,0.4-2.9-0.7-3.4c0.4,0,0.4,0.4,0.8,0.4
		c0-0.9,0.4-1.6,0.6-2.3c-0.2-0.5-0.9-0.4-0.8-1c0.2,0.1,0.3,0.4,0.7,0.4c0.1-1.1,1.4-2,0.7-3.3c1.2-0.3,2-0.5,2.9-1
		c0.8-0.5,1.4-1.4,2.2-1.7c0.1-0.1,0.9-0.1,1.2-0.2c1.4-0.5,2.3-2,2.7-3.7c0.3-1.4,0.3-2.8,1.4-2.7c0.9,0.1,1.2,2.5,1.9,3
		c0.4,0.2,0.9,0.4,1.3,0.4c2.1,0,2-2.1,3.3-3.1c0.7,0.4,0.7,1.5,1.6,1.7c1.6,0.5,2.3-0.9,2.9-1.8c0.9,0.6,2,0.5,2.3-0.5
		c-0.5,0-0.6,0.6-1.1,0.6c-0.7-0.3-0.9-0.8-1.5-0.6c-0.5,0.1-0.4,0.8-0.7,1.2c-0.3,0.4-0.8,0.7-1.3,0.7c-1.5,0-1.7-2.9-3.2-1.5
		c0.3-0.3,0.5-0.7,1-0.7c1,0.3,0.8,1.8,1.6,2c1.7,0.5,1.6-1.6,2.7-2.1c0.6,0.3,0.7,0.8,1.3,0.8c0.6,0,0.8-0.8,1.5-0.6
		c-0.6-0.8-1,0.3-1.6,0.3c-0.5-0.1-0.9-1.3-1.7-0.8c1.1-0.8,1.8,1.7,2.8,0.1c0.7,1,1.2-0.2,2.1,0.2c-0.4-1-1.4,0.2-2-0.5
		c-0.4,0.1-0.6,0.5-1.1,0.5c-0.6-0.4-0.6-0.9-1.4-0.9c-1.1,0-1,1.6-2,1.8c-1-0.5-0.7-2.5-2.1-2.6c-2.1-0.2-2,3.5-3.4,3.3
		c-0.8-0.1-0.7-1.7-1.1-2.4c-0.9-1.6-3.5-1.6-4.8-0.5c-1.1,0.9-1.1,2.3-1.5,3.7c-0.4-2.5-4.6-3.5-5.6-1.5c-0.6,1.4,0.3,2.9,1.7,2.7
		c0.8-0.1,1.7-2,0.5-2.1c-0.9-0.1-0.5,0.9-1.1,0.8c-0.2-2.3,2.7-1.6,3.2-0.3c0.6,1.6-0.5,2.9-1.5,3.4c-3.1,1.5-6.6-0.5-7.7-2.3
		c-0.7,0.4-1.4,0.8-2.5,0.8c1.6,3,7.7,4.2,11.2,2.1c-2.7,2.7-8.2,1.7-10.9-0.6c-0.5-0.4-0.7-1-1.4-1.2c-0.5-0.1-1.3,0.1-1.9,0
		C97.8,86,97.3,85,96.9,84c-0.4-0.9-0.6-2.3-1.6-2.4c0.5,5.2,3,9.5,7.7,10.5c-2.9,4.3-4.1,13.5-0.6,17.9c-2.3-0.2-4,0.1-5.9,0.5
		c-1.9-1.2-3-3.3-3.8-5.6c1.2-1,3.3-3.7,1.6-5.4c-1-1-3.3-0.8-3.7,0.9c-3-2.2-5.7,1.8-3.2,3.8c-0.8,1.4,0.4,2.9,1.5,3.4
		c-0.4-0.7-0.8-2.9,0.7-2.8c1.5,0,1.6,2.1,2,3.3c0.7,2.1,2.3,5.3,4.1,5.9c1.2,0.4,2.1-0.5,2.9-0.5c1.1-0.1,2.3,0.5,3.3,0.7
		c1.8,0.5,3.4,1,5.8,0.9c2.1,1.3,4.6,2.1,7.8,2.1c9.3,0,12.9-9.1,10.8-19.1c1.4-0.9,2.8-1.5,4.6-1.4c2.9,0.2,5,2.9,8,3.2
		c-0.8,2.8-2.6,5.2-4.4,6.8c-0.4-1.5-0.8-3-2-3.5c-2.3-1-5,1.3-3.3,3.4c0.1-1.3,0.7-2.3,1.7-2.3c1.5,0,1.8,2,1.9,3.6
		c-1.8-1.4-5.3-0.9-6,1.1c-0.7,1.9,0.7,3.9,2.9,3.4c-1.1-0.4-1.7-1.2-1.6-2.8c0.7-1.6,3.5-1.5,4.4-0.2c-2.5,0.8-2.3,5.9,1.4,4.7
		c-0.9-0.5-1.9-1-1.6-2.3c0.2-0.8,1-1.2,1.9-1.4c2.9-2.3,5.9-5.3,8.2-8.5c0.6-0.8,2-2.5,2.1-3.5c0.1-1.1-0.9-2.1-1.8-2
		c-0.7,0-1.4,0.8-2.5,0.6c-3.4-0.4-5.6-4.4-8.7-4.9c2.4-0.3,3.9,0.1,5.8,0.2c10.3,0.5,16.4-3.8,16.8-12.8c0.4-7-4-11.3-10.7-11.7
		c-3.5-0.2-6.7,0.2-9.1,1.1c-1.7,0.6-3.3,1.5-5.2,1.7c-3.4,0.4-6.2-1.6-6.2-4.6c-0.1-3.9,3.2-5.8,5.4-7.4c0.4,1.8,1.2,3.2,2.2,4.7
		c0.8,1.2,2.2,2.9,3.4,3.3c3.8,1.2,5.1-3.4,5.3-6.4c0.2-2.6-0.2-5.5,1.5-7.1c2.6,1,4.5,3.2,5.9,5.2c-1.5-0.2-2.9-0.4-3.8,0.5
		c-1.3,1.3-0.8,4.6,1.8,4c-0.6-0.7-1.5-0.8-1.5-1.8c0-1.7,2.5-1.6,4-1.1c-1.6,0.8-2.4,3.9-0.6,5.1c1.3,0.9,3.3,0.2,3.6-1.4
		c-0.3-0.2-0.8,0.5-1.3,0.5c-2.9,0.5-2.5-3.5-0.5-3.8c0,2.6,4.3,3.4,4.2,0.2c-0.7,1.6-3.6,0.9-2.9-1.2c-1.7-3.4-3.9-6.4-6.6-9.1
		c-0.6-0.6-1.8-2.3-2.7-2.6c-2.3-0.5-2.4,2.2-2.8,3.8c-0.7,2.9-1.7,6.2-2.5,8.5C133.3,59.1,133,57,132.5,55.1z"/>
</g>
<g id="SPLINE_13_">
	<path class="st2" d="M78.7,41.5c4.9,0,9.8,0,14.6,0c0.9-0.5,1.3-1.4,1.6-2.5c-0.7,1.2-3.8,1.5-5.9,1c-0.2-0.2,0-0.7-0.2-0.9
		c-0.9,0.8-4.8,0.7-5.8,0c0,0.4,0.1,0.8-0.2,1c-2.2,0.2-4.9,0.3-5.8-1.2C77.3,40,77.8,41,78.7,41.5z"/>
</g>
<g id="SPLINE_14_">
	<path class="st2" d="M95.1,42.6c-2.2,0.4-5.7,0-9.1,0c-4.8,0-9.2,0.6-11.2-1.1c0-0.1-0.1-0.1-0.1,0.1c0.4,1.1,0.9,2.3,1.9,2.8
		c6.2,0,12.4,0,18.7,0c1-0.6,1.5-1.7,1.9-2.9C96.6,41.8,96,42.5,95.1,42.6z"/>
</g>
<g id="SPLINE_15_">
	<path class="st3" d="M70.9,45.8c-0.2,2,0,4.5-0.1,6.7c0.8,0,1.5,0,2.3,0c-1-4,3.7-4,2.7,0c1.3,0,2.7,0,4,0c-0.1-2,0-3.6,1.6-3.6
		c1.5,0.1,1.4,1.7,1.4,3.6c0.6,0,1.2,0,1.8,0c-1.1-4.6,4.1-4.5,2.9,0c0.6,0,1.2,0,1.8,0c-0.2-2.1,0.1-3.8,1.7-3.6
		c1.4,0.2,1.2,1.8,1.2,3.6c1.4,0,2.8,0,4.2,0c-1-4,3.7-4,2.7,0c0.7,0,1.4,0,2.1,0c0-2.2,0-4.5,0-6.7C91.1,45.8,81,45.8,70.9,45.8z"
		/>
</g>
<g id="SPLINE_16_">
	<path class="st2" d="M80.4,56.5c0.6,0.4,1,0.9,1.6,1.3c0.1-1,0.9-1.8,1.8-1.1c-0.6,1.1-1.1,3.2-2.9,2.1c1,2.2-1.2,3.2-2.7,2
		c0.2,1,1.4,2,1.2,3.1c-0.2,0.9-1.3,1-2.3,1.3c0.5,0.5,0.8,2.2,1.6,2.1c0.6-0.1,0.7-1.2,0.3-1.8c0.7-0.4,1.8,0.2,1.9-0.6
		c0.2-0.8-0.7-0.6-0.8-1.4c1.7-0.1,1.8-0.7,0.9-1.7c0.3-0.6,0.9-0.4,1.6-0.4c0.1-0.2,0.3-0.3,0.3-0.5c0.1-0.5-0.6-0.4-0.5-1
		c0.2-0.5,0.9-0.3,1.3-0.5c0.4-0.9,0.3-2.2,0.7-3.1C83.8,55,80.8,54.7,80.4,56.5z"/>
</g>
<g id="SPLINE_17_">
	<path class="st2" d="M99.9,67.5c0.3-1,0.8-2,0.9-2.7c0.3-2.3-1.6-3.8-3.7-3.5c-0.6,0.1-1.1,0.7-1.8,0.6c0.2-1,0.8-2.2,0.2-3
		c-0.7-0.9-2.2-0.1-2.9,0.1c0-1-0.3-1.6-0.8-2c-1.2-0.1-1.3,0.9-2.3,1c-0.7-0.2-0.2-1.7-1.4-1.5c0,0.6,0.5,1.4,0.7,2.1
		c0.8,0.4,1.3-0.3,2-0.4c0.4,0.7-0.4,2,0.4,2.5c0.9,0.6,1.6-0.8,2.7-0.4c0,1.5-2.3,2.1-1.3,3.6c1.6,2.1,5-1.6,6.1-1.4
		c0.7,0.1,1.2,1,1.1,1.8c-1.4,1.2-3.8,4.6-1.8,7c0.2,0.3,0.4,0,0.5,0.2c-1.5,1.3-1.1,4.6,0.5,5.5c-0.2-1.6-0.8-2.4-0.6-3.7
		c0.3-2.6,4-4.4,2.4-7.5c-0.1,2.5-1,4.1-2.1,5.5c-2.2-2.1,0.6-4.7,1.2-6.7c-0.1,2.2-3.1,4.1-1.2,6.4C99.4,70.2,99.5,68.9,99.9,67.5z
		"/>
</g>
<g id="SPLINE_18_">
	<path class="st2" d="M87.7,56.6c0.9-0.7,1.7,0.1,1.7,1.1c0.6-0.4,1.2-0.8,1.6-1.4c-0.4-1.7-3.5-1.4-4.2-0.2c0.4,0.7,0.4,2,0.6,2.9
		c0.4,0.4,1.3,0.1,1.5,0.7c0,0.5-0.5,0.4-0.5,0.9c0,0.1,0.1,0.2,0.1,0.4c0.6,0.4,1.7-0.2,1.9,0.6c-0.2,0.4-0.7,0.5-0.7,1.1
		c0.1,0.7,1.4,0,1.6,0.6c-0.1,0.7-0.9,0.5-0.8,1.2c0.1,0.9,1.2,0.4,1.9,0.7c-0.4,0.7-0.3,1.8,0.4,1.8c0.9,0.1,1.1-1.7,1.6-2.1
		c-1.1-0.3-2.3-0.5-2.4-1.6c-0.1-1,1-1.8,1.2-2.8c-1.5,1.3-3.5-0.1-2.7-2C88.8,59.8,88.2,57.7,87.7,56.6z"/>
</g>
<g id="SPLINE_19_">
	<path class="st2" d="M77.5,56.8c-0.5-0.9-1.6-0.6-1.8,0.4c-0.4-0.5-1.3-0.2-1.6,0.2c-0.1,0.4,0.2,1.2-0.2,1.3
		c-0.4-0.3-1.3-0.6-1.7-0.1c-0.2,0.7,0.5,1.2-0.1,1.5c-0.6-0.2-0.4-0.7-1-0.7c-1.1-0.1-0.9,1-0.5,1.8c-0.6,0.5-1.4-1-2,0
		c0,1,1.4,1.5,0.6,2.4c-0.3,0.2-1,0-1.3,0.2c-0.4,1.1,1,1,1.2,1.8c-0.1,0.4-0.7,0.3-0.9,0.6c0,0.9,1.1,1,0.7,2
		c0.3,0.1,0.6,0.2,0.9,0.2c-0.4-4.6,1.1-8.7,5.7-7.1c-0.9-2,1-3.9,3-2.9c0.3-0.8,1.6-1.9,0.6-2.9C77.9,55.1,78.3,56.6,77.5,56.8z"/>
</g>
<g id="SPLINE_20_">
	<path class="st2" d="M92.7,55.4c-1.6-0.2-0.3,2.4,0.3,2.9c2-1,3.8,0.8,3,2.9c0.8-0.1,1.1-0.4,1.8-0.4c3.4,0,3.8,3.8,3.8,7.5
		c0.3,0,0.6-0.1,0.8-0.2c-0.3-1.2,0.8-1,0.7-2c-0.2-0.4-0.9-0.2-0.9-0.7c0.3-0.7,1.6-0.6,1.2-1.7c-0.2-0.2-0.8-0.1-1.2-0.1
		c-0.9-1,0.7-1.4,0.5-2.6c-0.1-0.1-0.3-0.2-0.4-0.3c-0.7-0.1-0.8,0.4-1.4,0.5c0-0.2-0.2-0.2-0.3-0.4c0.2-0.5,0.6-0.7,0.5-1.2
		c-0.4-1.2-1.6,0.1-1.9,0.3c-0.5-0.3,0-0.7,0-1.3c-0.3-0.8-1.3-0.3-1.9-0.1c-0.2-0.5,0.1-0.9-0.1-1.4c-0.4-0.4-1.2-0.5-1.6-0.1
		c-0.2-1.4-1.2-0.9-1.8-0.4C93.3,56.5,93.5,55.4,92.7,55.4z"/>
</g>
<g id="SPLINE_21_">
	<path class="st2" d="M73.9,73.5c-0.2-1.3-1.3-2.3-2-3.5c-0.8-1.4-1-2.6-1.3-4.2c-1.3,3.5,2.6,5.2,2.6,8c0,1.1-0.6,2-0.7,3.2
		C73.4,76.2,74.1,75,73.9,73.5z"/>
</g>
<g id="SPLINE_22_">
	<path class="st2" d="M73.4,71.5c2.1-2.3-0.1-5.7-1.6-7.1c0.3,2.2,3.4,4.5,1.2,6.8c0,0.1,0,0.2,0.1,0.3
		C73.2,71.4,73.2,71.6,73.4,71.5z"/>
</g>
<g id="SPLINE_23_">
	<path class="st2" d="M70.8,65.1c0.4,1.3,1.6,4.4,1.7,5.6c0.1,0.1,0.2,0.2,0.4,0.3c2.1-2.4-1.6-4.4-1.3-7c0.1-0.4,0.2-1.1,0.9-1.4
		c1.5-0.6,2.8,1.6,4.3,1.8c0.9,0.1,2-0.1,2.2-0.8c0.5-1.7-1.8-2-1.3-3.4c1.1-0.1,1.6,0.8,2.7,0.5c0.7-0.5-0.2-2.1,0.5-2.5
		c0.7,0.1,1,0.7,1.6,0.5c0.6-0.2,0.9-2,0.9-2.2c-1.2-0.2-0.6,1.3-1.4,1.5c-0.8-0.2-1.3-1.2-2.2-1c-0.7,0.2-0.8,1.2-0.9,2.1
		c-0.7-0.3-1.2-0.7-1.9-0.6c-1.6,0.2-1.2,2.1-0.8,3.6C73.8,60.2,69.9,62.1,70.8,65.1z"/>
</g>
<g id="SPLINE_24_">
	<path class="st2" d="M64,68.9c0.1-1.2,2.2-2,3.3-1c0.8,0.8,0.5,1.7,0.5,3.3c0.2,0.4,0.7,0.7,1.3,0.5c0.3-0.3,0.3-1.4-0.2-1.5
		c-0.5,0.1-0.1,0.8-0.5,1c-0.1-1.9,0.2-4.1-1.9-4.4c-2-0.2-4.3,2.3-2.4,3.9c0.5,0.4,1.5,0.6,2.1,0.2c1-0.7,0.2-3.1-1-1.8
		c0.4,0,0.8,0.2,0.7,0.7c0-0.6-1-0.2-1.1-0.8c0-0.3,0.5-0.7,1-0.7c1.4,0.1,0.9,1.7,0.8,2.5c-0.3,4.1,5.4,1.3,2.6-0.6
		c0.5,0.7,0.4,2.1-0.8,2c-1.9-0.1,0-3.9-1.9-4.4c-0.8-0.2-2.5,0.1-2.3,1.6c0.1,0.7,0.7,1.2,1.6,0.6C65.2,71,64,69.8,64,68.9z"/>
</g>
<g id="SPLINE_25_">
	<path class="st2" d="M107,69.9c1.2-1.2-0.7-2.5-1.9-2.2c-1.9,0.4-0.1,4.4-2.1,4.4c-1.2,0-1-1.5-0.8-2c-1.8,1.2,0.3,3.8,2.1,2.7
		c1.6-1-0.8-4.5,1.5-4.5c0.4,0,0.9,0.5,1,0.7c-0.1,0.4-0.7,0.3-1,0.5C105.7,70.6,106.7,70.2,107,69.9z"/>
</g>
<g id="SPLINE_26_">
	<path class="st2" d="M105.5,67.4c0.9,0,2.1,0.6,2,1.7c-0.2,1.9-3,0.8-1.2-0.2c-0.8-0.7-1.7,0.2-1.4,1.4c0.9,1.6,3.2,0.5,3.1-1.4
		c-0.2-2.9-5.1-3-4.9,0.5c0,0.6,0.7,1-0.1,1.6c0-0.5,0-1-0.5-1c-0.3,0.3-0.4,1.1-0.1,1.5c0.4,0.2,0.9,0.1,1.2-0.2
		C103.6,69.5,103.5,67.5,105.5,67.4z"/>
</g>
<g id="SPLINE_27_">
	<path class="st2" d="M82.5,73.8c2.2,2.3,6.4,0.5,6.1-2.8c-0.2-2-1.9-3.3-3.8-3.1C82.1,68.1,80.3,71.5,82.5,73.8z"/>
</g>
<g id="SPLINE_28_">
	<path class="st2" d="M72.1,76.1c2.1-2.2-0.3-5.6-1.7-6.9c0.3,1.5,1.4,2.3,1.8,3.8c-1.1-0.1-1.3,2-0.3,2.1c0.3-0.5,0-1.7,0.4-2.1
		C72.7,74.3,71.8,75.1,72.1,76.1z"/>
</g>
<g id="SPLINE_29_">
	<path class="st2" d="M99.6,75.2c0.1,0,0.2,0,0.3,0c0.6-0.4,0.6-2.2-0.5-2.1C99.5,73.8,99.5,74.6,99.6,75.2z"/>
</g>
<g id="SPLINE_30_">
	<path class="st2" d="M99.2,73.8c0-1.7,1.8-3,2.1-4.6c-1.5,1.3-3.8,4.6-1.8,6.9C99.8,75.2,99.1,74.7,99.2,73.8z"/>
</g>
<g id="SPLINE_31_">
	<path class="st2" d="M69.4,75.1c0.1,0.9,0.9,1.6,0.8,2.5c-0.1,1.3-2,2-2.4,3.6c-0.5,1.9,0.9,3.4,2,3.8c2.1,0.7,3.3-0.7,4.1-1.9
		c0.5-0.8,1.1-1.9,1.9-2c1.4-0.2,2.6,0.9,3.9,1.1c2.8,0.4,5.1-1.1,5.9-3c0.8,1.8,2.7,3.1,5,3.1c1.9,0,3.4-1.5,4.8-1.2
		c1.2,0.2,1.7,2.4,2.7,3.3c1.7,1.6,4.9,0.4,5.3-1.6c0.5-2.8-2.1-3.3-2.4-4.9c-0.2-1.3,0.9-2.2,0.8-3.7c-0.1-1.3-0.6-2.3-1.7-2.7
		c-0.8,1,0.4,1.4,0.5,2.5c0.1,1.5-1.6,3-1.5,4.3c0.2,1.2,2,1.6,1.8,3c-0.1,0.8-0.9,1.4-1.6,1.4c-1.3,0-1.4-1.8-2.3-2.6
		c-1.9-1.7-4,0.6-6.2,0.8c-2.4,0.2-3.8-0.6-5.5-1.9c-1.5,1.3-2.8,2.2-5.5,1.9c-1.7-0.2-3.1-1.5-4.5-1.5c-2.3,0.1-2.2,3.2-3.9,3.2
		c-0.8,0-1.6-0.8-1.6-1.6c0-1.2,1.7-1.7,1.8-2.7c0.2-1.5-1.7-2.9-1.4-4.7c0.2-0.9,1.3-1.3,0.3-2.3C69.7,72,69.2,73.5,69.4,75.1z"/>
</g>
<g id="SPLINE_32_">
	<path class="st2" d="M63.4,76c0,1.4,1,3-0.2,3.7c-1.5,0.9-2.3-1.2-3.7-1.2c-1.4,0-1,2.1-2.6,2.4c0.4,0.1,0.9,0.3,1.3,0.1
		c0.6-0.5,0.3-1.7,1.1-1.8c0.9-0.2,1.7,1.4,3,1.6c0.7,0.1,1.4,0,1.9-0.4c1.3-0.9,0.2-2.8,0.4-4.4c0.2-2.1,2.4-2.5,4.7-1.7
		C67.6,71.7,63.4,72.9,63.4,76z"/>
</g>
<g id="SPLINE_33_">
	<path class="st2" d="M112.3,78.7c-1.3-0.3-2.1,1.6-3.6,1.3c-2-0.4-0.2-3.7-0.8-5.2c-0.9-2.1-4.2-2.5-5.7-0.5c2-0.6,4.3-0.6,4.7,1.5
		c0.2,1.4-0.8,3.3,0,4.3c1.7,2.1,4.2-0.5,5.5-0.8c0.6,0.4,0.5,1.5,1.1,1.9c0.5,0,0.9,0,1.1-0.3C113.1,80.5,113.4,78.9,112.3,78.7z"
		/>
</g>
<g id="SPLINE_34_">
	<path class="st2" d="M54,78c-0.6,1.9,2.3,2.4,3.4,1.5c0.8-0.7,0.5-1.4,1.3-1.6c1-0.3,2,0.2,2.7-0.5c2.1-1.9-1.8-4.6-3-2.7
		c-0.4,0.7,0.1,1.7,0.5,1.8c-1.9-0.6-2.2,1.1-2.7,2.1C57,77.1,54.3,76.9,54,78z"/>
</g>
<g id="SPLINE_35_">
	<path class="st2" d="M113,74.5c-1.6-1.5-4.5,1.1-2.9,2.8c0.6,0.7,2.1,0.2,2.9,0.5c0.6,0.2,0.5,0.7,0.8,1.2c0.8,1.1,2.6,1.2,3.6,0.3
		c1-1.3-0.8-2.7-1.9-1.6c-0.6,1.2,1.1,1.7,1.4,0.6c-1.4,2.3-1.5-1.5-2.9-1.8c-0.8-0.2-1,0.3-2.3,0.2c-0.5-0.1-0.7-1.3,0.1-1.3
		c-0.2,0.2-0.4,0.6-0.2,1C113.2,77.3,113.8,75.3,113,74.5z"/>
</g>
<g id="SPLINE_36_">
	<path class="st2" d="M66.5,82c0.9-0.7,1.5-1.7,2.2-2.7C67.1,79.3,66.8,80.7,66.5,82z"/>
</g>
<g id="SPLINE_37_">
	<path class="st2" d="M67.8,79.1c-1.2-1.5-0.6-4.4,1.3-4.6c-0.8-0.1-1.7-0.4-2.6-0.2c-1.8,0.5-0.4,2.6-0.5,4.3
		c-0.1,1-0.8,1.2-1.4,1.7c0.4,0.5,0.6,1.2,1.5,1.3C66.6,80.8,67.1,79.9,67.8,79.1z"/>
</g>
<g id="SPLINE_38_">
	<path class="st2" d="M102.9,79.3c0.6,1,1.3,1.9,2.1,2.7C104.8,80.6,104.4,79.4,102.9,79.3z"/>
</g>
<g id="SPLINE_39_">
	<path class="st2" d="M105.6,81.7c0.7,0.1,1-0.8,1.5-1.3c-0.6-0.4-1.1-0.6-1.3-1.2c-0.5-1.3,0.7-3.1,0.1-4.2
		c-0.5-0.9-1.9-0.6-3.3-0.5c1.8,0.5,2.4,3,1.3,4.8C104.6,79.5,104.8,81.6,105.6,81.7z"/>
</g>
<g id="SPLINE_40_">
	<path class="st2" d="M67.5,77.1c0.2-0.9,1-1.3,1.9-0.9C69.1,75,66.9,75.8,67.5,77.1z"/>
</g>
<g id="SPLINE_41_">
	<path class="st2" d="M102.1,76.1c0.9-0.2,1.7,0.2,2.1,1C104.4,75.7,102.7,75.1,102.1,76.1z"/>
</g>
<g id="SPLINE_42_">
	<path class="st2" d="M69.2,76.4c-1.7-0.2-1.8,1.6-1.2,2.6C69.6,79.3,70.4,77.1,69.2,76.4z"/>
</g>
<g id="SPLINE_43_">
	<path class="st2" d="M101.7,77.4c-0.1,1.1,0.7,1.5,1.8,1.6C105.2,77.1,101.9,75.2,101.7,77.4z"/>
</g>
<g id="SPLINE_44_">
	<path class="st2" d="M80.9,80.1c-2.7,0-5.5-3.3-7.5-0.7c-0.6,0.8-0.7,2.2-1.6,2.2c-0.6,0-0.9-0.7-1.1-0.5c0.2,0.6,0.6,1.1,1.3,1
		c1.4-0.1,1.6-3,3.8-3c1.5,0,2.9,1.4,4.8,1.6c1.5,0.2,2.5-0.2,3.4-0.7c0.5-0.3,1.2-0.7,1.3-1.3C83.7,79.3,82.7,80.2,80.9,80.1z"/>
</g>
<g id="SPLINE_45_">
	<path class="st2" d="M97.8,79c-2.1-2-4.8,1.1-7.4,1.1c-1.7,0-2.6-1-4.1-1.6c0.8,1,2,1.8,3.5,2c2.4,0.3,4.2-1.6,6.1-1.6
		c2.1,0.1,2.3,3.1,3.8,3c0.7,0,1-0.5,1.2-1.2C99.2,83,98.8,80,97.8,79z"/>
</g>
<g id="SPLINE_46_">
	<path class="st2" d="M63.2,82.2c0.3-0.1,0.4-0.3,0.8-0.3c0.6,0.8,2.5,2.1,3.4,0.7c0.2-0.3,0.2-0.7,0.2-1.3c-1,1.8-2.3,0.8-3-0.5
		C63.5,80.6,63.4,81.4,63.2,82.2z"/>
</g>
<g id="SPLINE_47_">
	<path class="st2" d="M107.7,80.9c-1.2-0.6-1.5,1.6-2.5,1.6c-0.6,0-0.8-0.7-1.3-1.1c-0.3,1.3,0.7,2.1,1.9,1.8c0.8-0.2,1-1.3,1.7-1.3
		c0.3,0,0.5,0.4,0.7,0.2C108,81.5,108.1,81.1,107.7,80.9z"/>
</g>
<g id="SPLINE_48_">
	<path class="st2" d="M76.3,85.4c0.5-0.3,1.8-0.8,2.4-1.4c0.4-1.4-0.4-2.3-1.7-2.3C76.7,82.9,76.4,84,76.3,85.4z"/>
</g>
<g id="SPLINE_49_">
	<path class="st2" d="M93,82.2c-1.3,1.7,1.3,2.7,2.3,3.2c-0.1-1.3-0.6-2.4-0.6-3.7C93.9,81.8,93.3,81.9,93,82.2z"/>
</g>
<g id="SPLINE_50_">
	<path class="st2" d="M61.2,86.1c3.6,0.6,3.5-3.6,1-3.8C63.7,83.3,63.2,86,61.2,86.1z"/>
</g>
<g id="SPLINE_51_">
	<path class="st2" d="M110.3,86c-1.1-0.2-1.9-0.8-1.9-1.8c0-0.9,0.7-1.4,0.8-2C106.6,82.9,107.2,86.8,110.3,86z"/>
</g>
<g id="SPLINE_52_">
	<path class="st2" d="M73,93.8c0.8-0.6,0.5-2,1.4-2.2c0.8-0.2,1.6,0.5,2.5,0.2c1.1-0.4,0.8-3.2,2.1-3.7c1.7-0.6,2.9,0.2,4.1-0.9
		c1.1-1,1.2-2.9,0.8-4.8c-0.1,0-0.1-0.1-0.2-0.1c-0.1,0.1-0.2,0.1-0.5,0.1c-0.5,1,0.1,1.6-0.1,2.7c-0.2,1.1-1.5,2-2.6,2.2
		c-0.9,0.1-1.8-0.2-2.6,0.3c-1,0.6-0.4,3.2-1.6,3.7c-0.6,0.2-1.3-0.1-2.2,0c-1.5,0.6-1.2,3.4-3.6,2.7C71.6,94.1,72.3,94.3,73,93.8z"
		/>
</g>
<g id="SPLINE_53_">
	<path class="st2" d="M87.7,82.2c0,0.1,0,0.2,0,0.3c-0.5,1.9-0.3,4,1.1,4.9c1.1,0.7,2.2,0.2,3.7,0.5c1.6,0.4,0.9,3.2,2.2,3.7
		c0.9,0.4,2-0.5,2.7-0.1c0.8,0.4,0.5,1.9,1.5,2.3c0.6,0.3,1.5,0.2,2-0.2c-0.8,0.3-1.6,0-2-0.4c-0.5-1.1-0.4-2-1.6-2.3
		c-0.7-0.2-1.4,0.3-2.1,0.1c-1.2-0.3-0.7-2.8-1.5-3.6c-0.9-0.8-2.8-0.2-3.9-0.8c-1.4-0.8-1.6-2.5-1.4-4.4
		C88.2,82.4,88,82.2,87.7,82.2z"/>
</g>
<g id="SPLINE_54_">
	<path class="st2" d="M75.7,86.4c-0.4,0.8,0,1.6-0.3,2.9c-1.2,0.6-2,0.5-2.7,1.4c-0.6,0.9-0.4,2.5-1.4,3c1.4,0.1,1.2-1.5,1.7-2.3
		c0.8-1,2-0.5,3.4-1c0.5-0.9,0.1-2,0.6-2.7c0.9-1.3,3-0.5,4.4-1.5c0.9-0.7,1.1-2.1,0.9-3.6c-1,0.2-2.3,0.2-3.2-0.1
		C80.2,85.6,76.6,84.5,75.7,86.4z"/>
</g>
<g id="SPLINE_55_">
	<path class="st2" d="M89.1,82.6c-0.2,1.8-0.2,2.9,0.8,3.6c1.5,1,4.1,0.1,4.7,2c0.2,0.6-0.1,1.6,0.5,2.2c0.9,0.5,1.9,0.1,2.6,0.4
		c1.4,0.5,0.8,2.9,2.5,2.9c-1-0.8-0.8-2.5-1.6-3.4c-0.6-0.6-1.3-0.4-2.3-1c-0.4-1.2,0.1-2.1-0.4-3c-0.8-1.6-4.7-0.9-3.5-3.7
		c-0.1,0-0.1,0-0.2,0C91.3,82.9,90,82.8,89.1,82.6z"/>
</g>
<g id="SPLINE_56_">
	<path class="st2" d="M58.4,84.6c-0.2,2.1,2,3.2,4.5,2.9c1.8-0.2,3.4-1.4,4-2.6c-1.1-0.1-1.8-0.7-2.5-1.2c0,1.4-0.9,2.5-2.3,2.7
		c-1.5,0.2-3.2-0.6-2.8-2.2c0.2-0.6,0.9-0.7,0.8-1.1C59,83.2,58.4,83.8,58.4,84.6z"/>
</g>
<g id="SPLINE_57_">
	<path class="st2" d="M112.2,85.4c-0.8,2-5.5,1.2-5.1-1.5c-0.5,0.4-1.7,0.9-2.5,1.3c1.2,2.5,8,3.6,8.5,0c0.2-1.3-0.7-2.2-1.8-1.9
		C112,83.7,112.6,84.4,112.2,85.4z"/>
</g>
<g id="SPLINE_58_">
	<path class="st2" d="M55.5,130.2c0.8,0.1,2.2,1.5,2.7,0.5c-0.7-0.6-1.4-1.3-2.2-1.7C55.9,129.3,55.7,129.7,55.5,130.2z"/>
</g>
<g id="SPLINE_59_">
	<path class="st2" d="M113,130.2c0.8,0.3,1.5,0.8,2.5,0.9c0.1-0.1,0.2-0.3,0.3-0.4c-0.6-0.8-1.4-1.3-2.2-1.8
		C113.3,129.3,113.1,129.7,113,130.2z"/>
</g>
<g id="SPLINE_60_">
	<path class="st2" d="M28.5,131.9c0.3,2.4,1,7,0.2,9.4c-0.1,0.3-0.6,0.7-0.4,0.8c0.5,0.7,1.3-0.3,1.9-0.4c0-1.7,0-3.4,0-5.1
		c2-0.2,4.5-0.2,6.2,0.4c0.1,1.8,0.2,3.8-0.2,5.3c1.2,0.2,1.4-1.1,2.7-1.1c0-0.4-0.2-0.5-0.2-0.9c-0.4-0.1-0.5,0.4-0.7,0.2
		c-0.2-2.1-0.5-5.1-0.3-7.4c0.1-0.6,0.4-1.2,0.2-1.6c-0.6-0.2-1.1,0.4-1.6,0.5c0,1.2,0.2,2.8,0.1,3.8c-1.9-0.2-4.3,0.1-6.1-0.2
		c-0.1-1.4,0.1-3-0.1-4.3C29.6,131.5,29,131.7,28.5,131.9z"/>
</g>
<g id="SPLINE_61_">
	<path class="st2" d="M57,131.3c0,0.2-0.4,0-0.5,0.1c-1.2,4.2-3.4,7.4-5.5,10.7c0.9,0,1.8,0,2.7,0c0-0.2,0-0.4,0-0.6
		c0-0.3-0.6,0.1-0.5-0.2c0.7-1.6,1.4-3.1,2.3-4.5c0.9-0.2,2,0,2.8,0.2c0.8,1.8,1.6,3.5,2.3,5.4c0.7-0.3,1.8-0.3,2.6-0.6
		c-0.1-0.1-0.2-0.3-0.2-0.5c-0.2-0.2-0.5,0.1-0.8,0.1C60,138.2,58.5,134.7,57,131.3z"/>
</g>
<g id="SPLINE_62_">
	<path class="st2" d="M97.7,131.9c0.3,2.4,1,7,0.2,9.4c-0.1,0.3-0.6,0.7-0.4,0.8c0.6,0.7,1.3-0.3,1.9-0.4c0-1.7,0-3.4,0-5.1
		c2-0.2,4.5-0.2,6.2,0.4c0.1,1.8,0.2,3.7-0.2,5.3c1.2,0.2,1.4-1.2,2.7-1.1c0-0.3-0.2-0.5-0.2-0.9c-0.4-0.1-0.5,0.4-0.7,0.2
		c-0.3-2.9-0.4-6.5-0.1-9.1c-0.6-0.2-1.1,0.4-1.6,0.5c-0.1,1.3,0.3,2.6,0,3.8c-1.8-0.2-4.2,0.1-6-0.2c-0.1-1.4,0.1-3-0.1-4.3
		C98.8,131.5,98.3,131.7,97.7,131.9z"/>
</g>
<g id="SPLINE_63_">
	<path class="st2" d="M114.4,131.3c0,0.2-0.4,0-0.5,0.1c-1.2,4.2-3.4,7.3-5.5,10.7c0.9,0,1.8,0,2.7,0c0-0.2,0-0.4,0-0.6
		c0-0.3-0.6,0.1-0.5-0.2c0.6-1.6,1.3-3.2,2.3-4.5c0.9-0.2,2,0,2.8,0.2c0.8,1.8,1.6,3.5,2.3,5.4c0.7-0.3,1.6-0.4,2.5-0.5
		c0-0.3-0.1-0.4-0.2-0.6c-0.1-0.2-0.5,0.1-0.7,0.1C117.5,138.2,115.9,134.7,114.4,131.3z"/>
</g>
<g id="SPLINE_64_">
	<path class="st2" d="M133.6,131.3c-0.5,0.3-1.1,0.5-1.6,0.6c0.6,2.9,1,7.7-0.3,10.2c0.7,0.6,1.4-0.2,2.1-0.4
		c-0.1-1.7-0.1-3.4-0.1-5.1c2-0.3,4.3-0.1,6.2,0.3c0,1.2,0.2,2.8,0.1,4c0,0.5-0.3,1.1-0.1,1.4c0.9,0,1.6-1,2.5-1.3
		c0-0.3-0.1-0.5-0.2-0.7c-0.4-0.1-0.6,0.5-0.7,0.3c-0.1-2.1-0.4-4.8-0.3-7c0-0.8,0.4-1.5,0.2-2.1c-0.6-0.2-1.1,0.4-1.6,0.5
		c0.1,1.2,0.2,2.8,0.1,3.8c-1.8-0.2-4.2,0.1-6-0.2C133.7,134.2,134.1,132.3,133.6,131.3z"/>
</g>
<g id="SPLINE_65_">
	<path class="st2" d="M39.8,137.2c0.2,3.1,2.6,4.9,5.3,4.9c3.6,0,6.2-2.9,5.7-6.7c-0.4-2.5-3-4.6-6.6-4
		C41.6,131.8,39.6,133.9,39.8,137.2z"/>
</g>
<g id="SPLINE_66_">
	<path class="st2" d="M70.7,131.8c0.8,1.4,0.5,4.5,0.5,7c-1.8-1.8-3.7-3.7-5.5-5.6c-0.4-0.5-1.3-1.9-1.9-1.6c-0.6,0.3-0.1,1.3,0,2
		c0.2,2.5-0.1,6-0.3,8.5c1,0.1,1.7-0.2,2.7-0.1c0-0.3,0-0.5,0-0.8c-0.3,0-1,0.2-1.1,0.1c-0.4-2-0.3-4.5-0.3-6.9c2.5,2.4,5,4.8,7,7.8
		c0.1-0.2,0.5-0.1,0.7-0.3c-0.7-3.2,0.2-7.7-0.2-10.5C71.8,131.5,71.4,131.8,70.7,131.8z"/>
</g>
<g id="SPLINE_67_">
	<path class="st2" d="M74.2,137c0,3.5,2.9,5.8,7.3,4.8c0,0.5-0.7,0.6-0.5,1.1c2.7-0.4,1.4-4.7,4.1-5c-0.7-1.1-2.2,0.1-3.4,0.1
		c-0.3,0.4,0.9,0.6,0.6,1c-1.1,4.5-6.4,1.5-6.8-1.7c-0.4-4,2.9-6.2,7-4.6c-0.6,0.4-0.4,0.9,0.2,1.3c0.3-0.8,0.7-1.5,1.1-2.3
		C79,130.5,74.1,132.1,74.2,137z"/>
</g>
<g id="SPLINE_68_">
	<path class="st2" d="M128.1,131.8c0.7,1.4,0.5,4.5,0.5,7c-1.9-1.7-3.8-4-5.7-5.9c-0.5-0.5-1.2-1.8-2.1-1.2c0.7,3,0.2,7.1,0.1,10.3
		c1,0.1,1.7-0.2,2.7-0.1c0-0.3,0-0.5,0-0.8c-0.3,0-1,0.2-1.1,0.1c-0.4-2-0.2-4.5-0.3-6.9c2.4,2.4,5,4.7,6.8,7.8
		c0.3-0.1,0.6-0.2,0.9-0.3c-0.7-3.1,0.1-7.5-0.2-10.5C129.2,131.5,128.8,131.7,128.1,131.8z"/>
</g>
<g id="SPLINE_69_">
	<path class="st2" d="M88.9,131.5c-0.3,0.4-0.6,0.8-0.7,1.4c1.1-0.2,2.2-0.5,3.6-0.4c0.1,2.2,0.1,4.8,0,7c-0.1,1.2-0.5,2.1-0.5,2.7
		c0.6,0.2,1.3-0.3,1.9-0.5c-0.1-2.9-0.2-6.5,0.1-9.2c1.2-0.1,2,0.2,3,0.4c0.2-0.4,0.4-0.8,0.5-1.4C94.3,131.7,91.3,131.7,88.9,131.5
		z"/>
</g>
<g id="SPLINE_70_">
	<path class="st2" d="M52.7,144.2c-0.5,0-0.9,0-1.4,0c0,2-2.9,1.7-3,0c-0.5,0-1,0-1.5,0C46.9,147.7,52.6,147.6,52.7,144.2z"/>
</g>
<g id="SPLINE_71_">
	<path class="st2" d="M50.2,148.1c-0.1-0.1-0.6,0.1-0.9,0.1c-1.7,6.4-5.1,11.2-8.3,16.2c1.2,0,2.5,0,3.7,0c0-0.2,0-0.5,0-0.7
		c-0.1-0.2-0.8,0-0.8-0.3c0.9-2.6,2.2-4.9,3.5-7c1.4-0.4,3.3-0.1,4.6,0.2c1.4,2.6,2.6,5.4,3.7,8.3c1.1-0.3,2.3-0.6,3.7-0.7
		c0-0.3-0.2-0.4-0.2-0.7c-0.4-0.3-0.8,0.1-1.2,0.1C54.9,158.8,52.4,153.6,50.2,148.1z"/>
</g>
<g id="SPLINE_72_">
	<path class="st2" d="M24.3,148.9c1,4.1,1.2,12.7-0.4,15.8c1,0.7,2-0.5,2.8-0.7c0.1-2.7-0.1-5.2-0.1-7.9c3.2-0.6,7-0.1,9.9,0.4
		c0.2,2.7,0.4,6-0.2,8.4c1.6,0.1,2-1.7,3.7-1.7c0-0.5-0.2-0.7-0.2-1.1c-0.4-0.2-0.9,0.6-1.2,0.5c-0.1-3.9-1-9-0.3-12.9
		c0.1-0.6,0.5-1,0.1-1.6c-0.8,0.2-1.4,0.6-2.2,0.8c0,2.1,0.1,3.9,0.2,5.9c-3.3-0.1-6.8,0.1-9.8-0.3c0-2.2,0-4.3,0-6.5
		c-0.1,0-0.1,0-0.2,0C25.9,148.4,25.2,148.7,24.3,148.9z"/>
</g>
<g id="SPLINE_73_">
	<path class="st2" d="M74,148.1c-0.8,0.3-1.6,0.6-2.5,0.7c1.2,2.4,0.8,7.3,0.9,11.2c-3.9-3.8-7.4-8.1-11.5-11.7
		c-0.2,0.2-0.4,0.4-0.6,0.5c1.3,4.4,0.4,10.9,0.2,15.7c1.2-0.1,2.7,0,3.8-0.2c0-0.3,0-0.6,0-0.9c-0.6-0.1-1.2,0.3-1.6,0.1
		c-0.6-3.2-0.4-7.3-0.5-11.1c3.9,3.8,7.9,7.5,10.9,12.2c0.3-0.2,0.9-0.2,1.1-0.5C73.1,159.4,74.1,153,74,148.1z"/>
</g>
<g id="SPLINE_74_">
	<path class="st2" d="M79.1,150.8c-3.1,3-2.9,9.1,0.2,12c1.7,1.6,5.8,2.4,8.8,1.6c-0.1,0.6-0.9,1-0.8,1.6c0.9,0.1,1.5-0.7,2.3-1
		c0.8-2.8,1.2-5.9,4-6.7c-1.2-1.5-3.3,0.2-5.1,0.3c-0.1,0.5,0.9,0.8,1.2,1.3c-0.9,1.7-1.4,3.8-3.7,3.8c-3.8,0.1-6.8-3.4-7-6.9
		c-0.3-4.7,2.8-7.7,7.7-7.3c1.1,0.1,2,0.4,3.3,0.8c-0.1,0.4-0.6,0.4-0.6,0.9c0.3,0.3,0.4,0.8,0.8,1c0.5-1.2,1.3-2.2,1.6-3.5
		C86.8,147.6,82,148,79.1,150.8z"/>
</g>
<g id="SPLINE_75_">
	<path class="st2" d="M100.2,148.8c0.1,1.5,0.3,3.3,0.4,5.2c0.1,3.1,0.3,7-0.5,9.3c-0.1,0.4-0.6,0.7-0.4,1.2c1.6,0,3.9-0.4,5.8-0.1
		c-0.1,0.4-1.1,0.7-0.7,0.9c0.3,0.2,0.9,0.1,1.3,0.2c0.8-1.2,1.8-2.1,2.6-3.4c-0.6-0.4-0.8-0.1-1.3,0.2c-1.4,0.8-3.1,1-5.1,1
		c0-5,0.3-10.3,0.1-15.3C101.7,148.4,101,148.6,100.2,148.8z"/>
</g>
<g id="SPLINE_76_">
	<path class="st2" d="M113.3,149.2c-2.4,1.4-4.3,4.5-3.8,8.5c0.7,6,8.2,9.1,13.5,5.2c3.8-2.7,4.2-9.5,1-12.6c-1.4-1.4-4-2.5-7.5-2.1
		C115.1,148.4,114.1,148.7,113.3,149.2z"/>
</g>
<g id="SPLINE_77_">
	<path class="st2" d="M139.8,148.9c1.4,2.6,0.8,7.2,0.9,11c-3.4-3.4-6.7-6.9-10-10.2c-0.5-0.5-0.8-1.3-1.6-1.4
		c-0.1,0.2-0.3,0.3-0.5,0.4c0.9,4.4,0.3,10.8,0.1,15.8c1.2-0.1,2.6,0,3.8-0.2c0-0.3,0-0.6,0-0.9c-0.6,0-1.1,0.1-1.6,0.2
		c-0.8-3.1-0.3-7.4-0.5-11.2c3.8,3.9,7.8,7.4,10.7,12.2c0.4-0.1,0.8-0.2,1.2-0.4c-1-4.8-0.2-11.1,0-16.1c-0.1,0-0.1,0-0.2,0
		C141.5,148.4,140.5,148.6,139.8,148.9z"/>
</g>
<g id="SPLINE_78_">
	<path class="st2" d="M145.1,156.8c0,5.1,3.8,8.3,9.7,7.8c0.5,0,1-0.3,1.6-0.3c0,0.7-1,0.9-0.7,1.6c0.8,0,1.5-0.7,2.2-1
		c0.8-2.8,1.3-6,4.1-6.8c-1.4-1.3-3.4,0.2-5.2,0.4c-0.1,0.6,1,0.7,1.2,1.4c-1,1.7-1.3,3.7-3.7,3.7c-4,0.1-6.9-3.6-7-7.3
		c0-5.9,5.4-8.3,11-6c-0.1,0.3-0.6,0.4-0.6,0.8c0.3,0.4,0.4,0.8,0.8,1.1c0.6-1.2,1.2-2.3,1.7-3.5
		C152.4,146.9,145.1,149.2,145.1,156.8z"/>
</g>
<g id="SPLINE_79_">
	<path class="st2" d="M10.7,148.3c-0.4,0.5-0.7,1.1-1,1.8c1.6-0.3,3.6-0.8,5.5-0.5c0,2,0.1,3.8,0,5.7c-0.1,2.9,0.2,6.1-0.5,8
		c-0.2,0.5-0.8,0.8-0.5,1.5c1-0.2,1.9-0.5,2.8-0.8c-0.3-4.5-0.3-10,0.1-14.4c1.9-0.1,3.4,0.2,4.8,0.6c0.2-0.6,0.5-1.2,0.6-1.8
		C18.6,148.5,14.4,148.7,10.7,148.3z"/>
</g>
<g id="HATCH_65_">
	<path class="st0" d="M119.4,43.7c0.5-0.7-0.6-1.2,0-1.6c0.1,0.3,0.1,0.9,0.4,1.1c0.5-1,2.3-1.3,2.1-2.7c0.3-0.3,0,0.6,0.1,0.9
		c0.4,0,0.6-0.2,0.9-0.3c1.5,1.2,4.6,1.9,4.3,4.7c-0.1,0.8-0.8,1.8-1.4,2.4c-2.8,2.9-8.5,5.2-12.3,6.5c-1.7,1.2-0.2,4.6,2,3.2
		c-1.1,2.7-5.1,0.7-3.7-2.5c-3.5-0.4-4.1,4.6-0.3,3.9c0.2,0.3-0.7,0.8-1.1,0.9c-1.5,0.3-2.8-0.8-2.9-2c-0.3-2.2,1.6-3.9,3.7-4
		c-0.6-1.3-3.6-2.5-3.9-0.5c-0.1,0.8,0.4,1.2,0.6,1.8c-2.9-0.7-1.3-4.4,1.4-4.4c1.7,0,2.6,1.4,3.6,2c4-2,7.6-4.3,10.5-7.3
		C122.3,44.8,121,44.1,119.4,43.7z"/>
</g>
<g id="HATCH_66_">
	<path class="st1" d="M39.1,55.2c-2.5-3.1-4.6-5.5-4.6-9.6c0-6.2,5.3-10.7,11.2-11.1c6-0.4,9.1,3.6,11.5,6.9c0.9,1.2,1.9,3.2,3.7,3
		c2.1-0.3,1.1-2.8,0-3.6c-0.7-0.5-1.6-0.8-2.3-1.4c-2.1-1.5-4.8-4-4.4-8.2c0.4-3.5,3.8-6.9,7.1-7.2c4-0.5,6.3,2.2,7.9,4.6
		c0.6,0.9,1.3,2.9,2.8,2.9c0.6,0,1.2-0.5,1.3-0.9c0.2-1.4-2.1-2.6-3-3.3c-2-1.6-2.5-5.5-0.6-7.6c0.8-0.9,2.3-2,4.6-1.9
		c0.9,0,2.1,0.4,2.8,0.7c0.3,0.1,2.3,1.1,2.6,0.1c0.1-0.5-1.2-1.8-1.6-2.3c-0.8-1-1.4-2.2-1.2-4.1c0.2-1.9,1.5-3.1,3.6-3.3
		c0.5-0.1,1.1,0.1,1.7,0c1.7-0.3,2-2.5,1.9-4.7c0.9,0.4,1,1.8,1,3.1c0.1,0.2,0.4-0.3,0.5,0c0.1,1.4,0,2.7-1.1,3
		c-0.5,0-0.7-0.4-1.2-0.2c0.3,0.4,1,0.4,1.3,0.8c-1,0.4-3.7,1.9-3.8-0.3c-0.2,0.1-0.4,0.3-0.6,0.3c0.4,0.3,0.9,0.4,1,1
		c-1.1-0.1-1,1-1.8,1.2c0.1,0.3,0.2-0.1,0.5,0c-0.1,1.1,1.5,1.3,0.7,2.2c0.7,0.1,3.3,1.5,2.4,3.2c0.1,0.2,0.4-0.2,0.6-0.2
		c0.1,1.2-0.1,2.1-0.5,2.7c-0.5-0.1-1.1,0.2-1.6,0.5c0.4,0.2,0.9,0.1,1.3,0.3c-0.5,0.9-1.8,1.6-3.1,1.1c-0.4-0.2,0-1.1-0.7-0.9
		c0,0.3,0.3,0.9,0.5,1.3c-1-0.1-2.7-0.2-3.3-0.9c0-0.4,0-0.8,0.1-1.1c-0.1-0.2-0.4-0.1-0.5-0.2c-0.1,0.3,0.5,0.8,0.3,1.5
		c-0.6-0.5-1.7-0.3-2.4-0.6c0,0.4-0.6,0.8-0.5,1.6c-0.2,0.2-0.7,0.1-0.6,0.5c0,0.2,0.3-0.1,0.4-0.2c0.4,1.1,1.7,1.3,1.6,2.9
		c0.3,0,0.2-0.4,0.5-0.4c0.4,0.6,0.9,1,1.3,1.6c0,0.4,0,0.5,0.3,1c0.2-0.1,0.2-0.6,0.5-0.5c0.6,1,1,2.9-0.1,3.6
		c0.2,0.3,0.5-0.2,0.8-0.1c-0.4,1.1-0.5,2.6-1.5,3.1c-0.6,0.1-0.9-0.4-1.2,0c0.3,0.2,0.9,0.1,1.1,0.4c-1,0.6-1.5,1.7-3.2,1.6
		c-0.3-0.1-0.4-0.5-0.5-0.7c-0.3,0.4,0.5,0.6,0.5,1c-1,0.1-2.3,0.1-3.1-0.1c0-0.6,0.1-1.3-0.3-1.6c-0.2,0.1,0.2,0.8-0.1,1
		c-1.3-0.4-3.5-1.5-2.3-3.3c-0.3-0.1-0.4,0.8-1,0.8c-0.3-0.7-0.5-1.4-0.8-2c0.1-0.4,0.4-0.5,0.5-0.9c-0.1-0.3-0.3-0.4-0.4-0.6
		c-0.3,0.4-0.3,1-0.6,1.2c-0.4-0.6-0.9-1.2-1.3-1.8c0-0.5,0.2-1.2-0.4-1.2c-0.2,0.3,0.2,0.8,0.1,1.3c-0.4-0.4-1.4,0.1-2.1,0
		c-0.6-0.1-0.9-1-1.2-0.4c0.3,0.1,0.8,0.2,1,0.5c-0.9,0.4-0.7,1.9-1.7,2.2c0.1,0.1,0.5-0.2,0.6-0.3c0.3,0.7,0.3,1.5,0.8,1.9
		c0,0.4-0.5,0.4-0.5,0.9c0.2,0.2,0.2-0.2,0.4-0.4c0.9,0.8,2.5,0.9,2.5,2.6c0.2-0.1,0.1-0.5,0.4-0.6c0.7,0.4,1.1,1.1,1.7,1.6
		c-0.3,0.4-0.1,0.8,0.2,1c0.2-0.2,0.3-0.5,0.4-0.7c0.5,0.5,1.3,1.4,1.3,2.3c0,0.5-0.3,0.7-0.3,1.1c0.1,0.2,0.6-0.6,0.7-0.4
		c0,1.1,0.5,2.7-0.2,3.4c-0.3,0.3-0.8-0.1-0.9,0.3c0.2,0.3,0.7-0.2,0.9,0.1c-0.6,1-0.9,2.1-1.9,2.7c-0.5,0.1-0.7-0.3-0.9-0.1
		c0.2,0.2,0.5,0.2,0.8,0.3c-0.6,0.8-1.4,1.3-2.2,1.9c-0.5-0.1-0.7-0.9-1.2-0.7c-0.1,0.2,0.6,0.3,0.5,0.7c-1.2,0.5-4.1,1-3.9-1.1
		c-0.2,0.3-0.1,0.8-0.2,1.1c-0.9-0.3-1.4-0.9-2-1.6c0.3-0.5,0.3-1-0.3-1.3c0,0.5-0.2,0.7-0.3,1.1c-0.7-0.6-1.2-1.3-1.6-2.2
		c0-0.5,0.4-0.8,0.1-1.2c-0.2,0.3-0.4,0.7-0.5,1.1c-0.4-0.9-1.1-1.3-1.6-2c-0.4-0.7,0.6-1.1,0.1-1.6c-0.2,0.4-0.2,0.9-0.5,1.1
		c-0.5-1.1-2.2-1.1-2.1-2.8c-0.2,0.2,0,0.7-0.1,1c-0.3-0.1-0.6-0.2-0.9-0.3c-0.4-0.1-0.9-0.1-1.4-0.1c-0.1-0.6-0.1-1.1-0.6-1.2
		c-0.1,0.2,0.4,0.5,0.4,0.9c-1.3,0.1-2.6,1.4-3.7,0.2c-0.2,0.4,0.8,0.4,0.7,1c-0.6,0.2-1.1,0.6-1.6,1c-0.3,0-0.4-0.2-0.7-0.2
		c-0.4,0-0.3,0.5-0.5,0.6c0.2,0.1,0.7-0.2,1.2,0c-0.1,0.6-0.7,1.3-0.9,2c-0.3,0.3-0.9,0.2-0.9,0.7c0.3,0.1,0.7-0.4,1.2-0.4
		c-0.5,1.1,0.6,3.2-1,3.3c0.1,0.1,0.1,0.2,0.1,0.4c0.2,0,0.4-0.7,1-0.6c-0.1,1.3,1.2,2.3,0.3,3.3c0.3,0.1,0.3-0.5,0.5-0.7
		c0.5,0.6,1.1,1.2,1.8,1.6c-0.1,0.4-0.6,1-0.2,1.3c0.2-0.2,0.1-0.6,0.3-0.8c1,0.8,2.9,1.1,2.6,2.9c0.1-0.3,0.3-0.6,0.4-0.9
		c0.7,0.7,1.9,1.1,1.6,2.3c0.1,0.1,0.3,0.3,0.5,0.4c0.2-0.2,0.1-0.8,0.3-1c1,0.6,2.1,1.4,1.8,3c0.3-0.2,0.3-0.6,0.5-1
		c0.4,0.7,1.8,1.7,1.7,2.7c0,0.5-0.6,0.6-0.5,1.1c0.2,0.1,0.4-0.7,0.8-0.6c0.1,1.1,1.1,3.3-0.4,3.7c0.2,0.2,0.4-0.3,0.8-0.2
		c0,1,0,2-0.2,2.8c-0.5,0-1,0-1.2,0.4c0,0.1,0.5-0.1,0.8,0c-0.6,1.3-0.3,3.3-2.4,3.1c-0.2,0.2,0.5,0.2,0.6,0.5
		c-0.4,0.8-1.3,1-1.9,1.5c-0.4-0.2-0.7-0.5-1.1-0.1c0.1,0.4,0.6,0.3,0.6,0.7c-1,0.4-2.4,1-3.4,0.3c-0.2,0.3,0.5,0.4,0.4,0.8
		c-0.9-0.2-1.8,0.4-2.9,0.2c-0.3-0.2-0.5-0.5-0.6-0.8c-0.4,0,0.2,0.5,0.1,0.8c-1-0.5-3.1,0-3.3-1.4c-0.3,0.1,0.1,0.4,0,0.6
		c-0.9-0.1-1.7-0.3-2.7-0.5c0-0.3,0.1-0.7-0.1-0.9c-0.3-0.1-0.1,0.4-0.2,0.5c-1.3-0.3-3.1,0-3.5-1.3c-0.1,0,0.1,0.5,0,0.8
		c-0.7-0.2-1.3-0.4-2.2-0.5c0.1-0.5-0.2-0.6-0.6-0.5c-0.2,0.2,0.3,0.4,0.2,0.8c-1.2,0.1-2.3,0.2-3-0.4c-0.3,0.3,0.7,0.6,0.5,0.8
		c-0.9-0.1-1.3,1-2,1.1c-0.6,0.1-0.9-0.4-1.4-0.1c0.3,0.1,0.9,0.1,1.1,0.4c-1,0.7-1.1,2.4-2.7,2.5c0.2,0.1,0.7-0.2,1.2-0.2
		c-0.3,0.6-0.2,1.5-0.2,2.4c-0.6,0.1-1,0.4-1.3,0.8c0.3,0.2,0.5-0.6,1.1-0.5c0.2,1.3,1.4,2.9,0.1,3.8c0.5,0.2,0.5-0.9,1.1-0.9
		c0.3,0.6,0.7,1.1,1.1,1.6c-0.5,0.6,0,1.5,0.6,1.6c-0.2-0.4-0.4-1-0.2-1.6c0.8,0.4,1.6,0.7,2.2,1.3c0.1,0.4-0.1,1.1,0.5,1
		c0.1-0.3-0.4-0.8-0.3-1.4c0.7,0.5,2.4,0,2.9,0.6c0.1,0.2,0.1,0.6,0.1,0.9c0.1,0.2,0.5,0,0.7,0.1c-0.4-0.3-0.7-0.7-0.7-1.3
		c0.9,0.4,2.3-0.2,3.1,0.4c0.2,0.2,0.2,0.7,0.5,0.8c0.3-0.2-0.5-0.6-0.5-1.1c1,0,1.7-0.3,2.7-0.4c0.1,0.6,0.3,1,0.8,1.2
		c0.1-0.2-0.5-0.5-0.5-1c1.4-0.2,3.9-0.8,3.8,1.1c0.4-0.1-0.2-0.8,0-1.3c0.9,0.2,1.6,0.5,2.3,0.8c0,0.4,0,0.7,0.1,1
		c0.1,0.2,0.4,0.2,0.6,0.4c0.2-0.3-0.4-1-0.1-1.5c0.7,0.5,2,0.8,2.2,1.7c0.1,0.5-0.4,1,0.1,1.4c0.2-0.4,0.2-1,0.5-1.4
		c0.3,0.9,2,1.7,1.8,2.8c-0.1,0.5-0.8,0.4-0.6,1.1c0.4-0.1,0.3-0.8,0.9-0.8c0.2,1.1,0.7,1.7,0.5,3.1c-0.2,0.2-0.4,0.4-0.7,0.5
		c0.2,0.2,0.5-0.3,0.8-0.3c0.2,0.8,0,1.8,0.1,2.7c-0.4,0.1-0.9,0.1-1,0.5c0.1,0.2,0.5-0.2,0.7-0.2c0.1,1.6,0.5,3.4-0.9,3.7
		c0.1,0.1,0.6-0.2,1-0.1c-0.1,0.7-0.2,1.3-0.3,2c-0.3,0.4-0.9,0.3-0.7,1.1c0.4,0.2,0.6-0.6,1.1-0.5c-0.1,0.8,0.2,1.4,0.2,2
		c-0.1,0.6-0.7,0.9-0.5,1.5c0.4-0.2,0.5-0.8,0.9-0.9c0.3,1.2,2.3,1.8,1,3.2c0.2,0.2,0.4,0.3,0.6,0.5c0.1-0.2-0.3-1.2,0-1.6
		c0.3,0,0.5,0.4,0.8,0.5c0.5,0.3,1.3,0.3,1.6,0.7c0.3,0.3-0.1,1.2,0.5,1.1c0.1-0.3-0.6-0.7-0.5-1.4c0.7,0.2,1.6-0.1,2.2-0.3
		c0.5,0.4,0.7,1.4,1.5,1.3c-0.2-0.4-0.9-0.5-0.9-1.1c0.9-0.1,1.7-1.2,2.7-1.1c0.6,0,0.8,0.6,1.3,0.6c0-0.4-1-0.5-1-1.1
		c0.6-0.3,1.2-0.7,1.6-1.1c0.4,0.5,1.4,0.3,1.5-0.4c-0.3,0-1,0.2-1.5-0.1c0.5-0.6,0.8-1.4,1.4-1.9c0.3-0.2,1.1,0,1.1-0.5
		c-0.2-0.1-0.9,0.2-1.3,0.2c0.5-0.6,0.2-1.9,0.5-2.7c0.2-0.3,0.8-0.2,0.9-0.5c-0.1-0.4-0.5,0.4-1,0.2c0.5-0.9-0.5-3,0.7-3.3
		c-0.2-0.2-0.4,0.3-0.7,0.3c-0.1-0.8-0.4-1.5-0.6-2.3c0.1-0.5,0.7-0.4,0.8-0.8c-0.2-0.5-0.3,0.3-0.7,0.2c-0.2-1.1-1.4-2-0.8-3.3
		c0.6,0,1,0.2,1.6,0.1c1,3.4,2.1,6.6,1.8,10.7c-0.4,5-4.2,9-9.2,9.4c-7.4,0.6-9.6-4.9-9.1-12.3c0.1-1.3,0.2-2.8,0.3-3.8
		c0.3-5.7-3.5-7.6-8.4-8c-2.6-0.2-5.6,0.4-8.6,0.3c-5.7-0.3-9.6-2.5-10-8c-0.5-6.1,4.4-9.7,10.1-9.3c3.5,0.2,6.6,1.9,10.4,2.2
		c5.7,0.4,10.5-2.1,10-8.9c-0.4-4.6-4.5-5.9-7.3-8.4c-2.6-2.3-6.1-6-5.8-11.1c0.2-3.2,3.2-7.1,7.9-6.9c4.3,0.2,6.3,3.1,8.2,5.6
		c1,1.4,2,3.4,4.4,3.7c3.4,0.4,6.1-2.2,5.8-5.7c-0.6-5.2-8.2-4.3-7.6-11c0.3-3,4.4-5.1,7.1-2.9c1.1,0.9,1.9,2.4,2.7,3.8
		c0.7,1.3,1.7,2.8,3.5,2.9c2.5,0.2,4.8-1.5,4.5-4.3c-0.3-3.1-4.5-4-4.3-7.7c0.1-1.6,1.5-2.8,3.3-2.8c1.7,0,3.8,1.2,5.5,0.8
		c1.7-0.3,1.9-3,0.1-4.1c1,1.7,1,3.7-1.6,3.5c-1.8-0.2-3-1.4-5.2-0.9c-1.8,0.4-3.4,2.2-2.8,4.8c0.3,1.2,1.1,2.5,1.8,3.4
		c1,1.2,2.4,1.9,2.2,3.9C74.4,33,73,33.9,71.9,34c-3.7,0.1-4-5.1-6.4-7c-2-1.5-5.7-1.1-7.3,0.5c-2.5,2.4-1.7,7.2,0.4,9.4
		c1.6,1.8,5.2,2.3,5.3,5.4c0.1,2.3-2,4.4-4.4,3.7c-1.9-0.5-3.8-3.4-5-4.8c-1.9-2.2-4-4.1-8.2-3.8c-5.1,0.3-8.9,4.1-8.5,9.6
		c0.3,4.3,3,7.7,5.7,10c3,2.5,7.9,4,7.4,9.4c-0.3,3.9-3,5.7-6.4,5.9c-5.3,0.3-9-2.6-14.5-2.3c-6,0.3-10.2,3.5-9.8,10.2
		c0.5,7.6,5.4,10.6,14.3,10.2c2.1-0.1,3.8-0.5,6.2-0.4c3,0.2,6.3,1.8,6.6,5.4c0.3,3.3-0.7,6.1-0.5,9.5c0.3,4.8,3.3,9.4,8.2,9.9
		c8.7,0.8,15-5.1,14.5-13.9c-0.2-3.2-1.1-5.5-2.4-8.3c0.4-0.3,1.2-0.2,1.7-0.4c3,4.2,4.1,13.3,0.7,17.9c-1.4,2.1-3.2,3.7-5.3,5.1
		c-2.3,1.3-4.6,2.1-7.6,2.1c-7.4,0-11.9-5.7-11.5-14.5c0.1-1.5,0.3-2.9,0.5-4.6c0.6-4-1.6-6-5.2-6c-2.1-0.3-4,0.1-5.7,0.2
		c-9.9,0.5-16.2-3.6-16.8-12.1c-0.7-9.3,5.6-12.9,13.9-12.4c2.1,0.1,4,0.5,5.9,1.2c2.2,0.8,4.1,2,7,1.6c2.3-0.2,4.2-1.9,4.5-4
		c0.5-4.1-3.2-6.4-5.3-8C41.9,57.7,40.5,56.4,39.1,55.2z"/>
</g>
<g id="HATCH_67_">
	<path class="st1" d="M132.5,55.1c-1.4,1.3-2.9,2.5-4.5,3.6c-2.2,1.6-5.5,3.5-5.4,7.4c0.1,2.9,2.8,4.9,6.2,4.6
		c1.9-0.2,3.5-1.1,5.2-1.7c2.4-0.9,5.6-1.3,9.1-1.1c6.7,0.4,11.1,4.7,10.7,11.7c-0.5,9-6.6,13.3-16.8,12.8c-1.9-0.1-3.4-0.5-5.8-0.2
		c-3.6,0.2-5.6,1.9-5.2,6c2.1,10-1.5,19.1-10.8,19.1c-3.2,0-5.7-0.9-7.8-2.1c-2.1-1.4-4-3-5.3-5.1c-3.5-4.4-2.2-13.6,0.6-17.9
		c0.6,0.1,1.2,0.2,1.7,0.3c-1.4,3.6-2.6,6.7-2.4,10.6c0.4,7,6,12.3,14.4,11.7c4.8-0.4,8-4.8,8.3-9.3c0.2-3.4-0.9-7.1-0.5-10.5
		c0.5-3.6,4.5-5.2,8.9-4.9c1.4,0.1,2.5,0.3,3.7,0.4c9,0.4,15-2.7,14.4-12.3c-0.4-5.7-5.3-8.5-11.3-8.1c-4.2,0.2-7.9,2.5-12.8,2.3
		c-3.7-0.2-6.6-2.3-6.6-6.5c0-5,4.6-6.4,7.4-8.9c2.7-2.3,6.2-6.2,5.7-11.8c-0.5-4.7-4.5-8.3-10.7-7.8c-2.8,0.2-4.8,2.5-6.2,4.1
		c-1.5,1.8-3.3,4.6-5.6,4.7c-3.3,0.1-4.6-4.2-2.6-6.2c1.2-1.2,2.8-1.6,3.9-2.7c1-1,2.6-3.2,2.3-6.3c-0.3-3.2-2.9-5.1-6.1-4.8
		c-2.1,0.2-3.3,1.4-4.2,2.7c-1.2,1.8-1.8,5.4-4.9,5.3c-1.4,0-2.9-1.3-2.8-3.1c0.1-1.6,1.2-2.2,2.2-3.4c1-1.2,2.2-2.8,1.9-5.1
		c-0.3-2-1.8-3-3.6-3.1c-2.1-0.1-3.5,1.4-5.8,1c-1.3-0.3-1.2-2.5-0.3-3.4c-0.8,0.4-1.6,1.3-1.4,2.6c0.4,2.9,4.6,0.7,6.8,0.6
		c1.8,0,3.6,1.1,3.4,3.5c-0.3,3.3-4,3.9-4.3,7.1c-0.3,2.9,3.5,5.5,6.2,3.6c2.5-1.8,2.4-6.2,6.1-7c3.4-0.7,5.8,1.8,5.4,5.1
		c-0.6,5.3-7.1,4.9-7.6,9.7c-0.3,3.2,2.2,5.9,5.8,5.6c2.7-0.3,4.3-3.5,5.7-5.2c1.8-2.2,4.1-4.3,7.8-4c3.9,0.3,7.4,3.4,7,8.2
		c-0.3,4.5-3.2,7.3-5.9,9.8c-2.6,2.3-7.6,4-7.1,9.9c0.4,4.9,3.9,7.7,9.9,7.3c3.6-0.2,6.9-1.9,10.5-2.2c5.5-0.4,10.6,2.9,10.1,9.5
		c-0.5,6.3-6.2,8.1-13.1,7.8c-1.4-0.1-2.8-0.3-4.1-0.4c-5-0.1-9.2,1.6-9.7,6.4c-0.2,2.3,0.2,5.2,0.4,7.3c0.6,6-2.6,10.9-9.1,10.4
		c-5.4-0.4-9-4.5-9.4-9.7c-0.3-3.6,0.9-7.1,1.8-10.4c0.6,0,1.1,0,1.6-0.1c0.6,1.3-0.6,2.2-0.7,3.3c-0.4,0-0.5-0.2-0.7-0.4
		c0,0.7,0.7,0.6,0.8,1c-0.3,0.7-0.6,1.3-0.6,2.3c-0.4,0-0.4-0.3-0.8-0.4c1.1,0.4,0.5,2.2,0.7,3.4c-0.5,0.2-0.8-0.4-1-0.3
		c0,0.5,0.7,0.2,0.9,0.5c0.4,0.7,0,2.2,0.6,2.7c-0.3,0.1-1-0.1-1.4-0.2c0,0.6,0.6,0.5,1,0.5c0.6,0.5,1,1.3,1.5,2
		c-0.4,0.1-1,0.3-1.4,0c-0.1,0.1,0.2,0.6,0.4,0.7c0.4,0,0.8-0.1,1-0.3c0.6,0.4,1,0.9,1.7,1.1c-0.1,0.6-0.8,0.7-1.2,1
		c0.6,0.3,0.6-0.5,1.3-0.5c1-0.1,1.8,1,2.8,1.1c-0.2,0.5-0.6,0.8-1,1c0.7,0.2,1.1-0.6,1.4-1.2c0.7,0.2,1.6,0.5,2.4,0.3
		c-0.1,0.6-0.3,1-0.6,1.4c0.9,0.3,0.4-0.9,0.7-1.2c0.7-0.4,1.9-0.8,2.4-1.2c0.3,0.3,0.2,1.1,0,1.5c0.1,0.1,0.5-0.2,0.6-0.4
		c-1.1-1.4,0.8-2,1-3.2c0.5,0.1,0.6,0.7,0.9,1c0.5-0.5-0.3-0.7-0.5-1.2c-0.2-0.7,0.2-1.5,0.2-2.4c0.4,0.1,0.8,0.4,1,0.7
		c0.2-0.9-0.3-1-0.7-1.3c0-0.8-0.1-1.4-0.3-2c0.5,0,0.8,0.1,1.1,0.2c-0.1-0.4-0.7-0.3-0.9-0.6c-0.4-0.9,0-2.1-0.1-3.2
		c0.4,0,0.6,0.2,0.8,0.3c-0.1-0.5-0.6-0.5-1.1-0.6c0-1,0.1-1.8,0.1-2.7c0.4,0,0.5,0.3,0.8,0.4c-1.3-0.7-0.4-2.5-0.2-3.7
		c0.6,0,0.6,0.6,0.9,0.9c0.3-0.7-0.4-0.6-0.5-1.1c-0.3-1.3,1.4-1.9,1.7-2.9c0.2,0.3,0.3,0.9,0.5,1.3c0.6-0.3,0-0.6,0.1-1.1
		c0.2-1,1.4-1.5,2.3-1.9c0.1,0.6-0.1,1.1-0.3,1.5c0.3,0,0.3-0.2,0.6-0.2c0.1-0.4,0.4-0.8,0.2-1.2c0.8-0.3,1.4-0.7,2.3-0.8
		c0,0.5-0.1,0.9-0.1,1.3c0.1-1.7,2.3-1.5,3.9-1.1c0,0.5-0.3,0.7-0.5,1c0.6-0.1,0.8-0.7,1-1.2c0.9,0.1,1.6,0.4,2.6,0.4
		c0,0.5-0.4,0.7-0.5,1.1c0.5,0,0.4-0.7,0.7-0.9c0.8-0.4,2.1,0.1,2.9-0.3c0,0.7-0.4,0.9-0.6,1.3c0.2,0,0.4,0,0.5,0
		c0.2-0.3,0.1-0.8,0.3-1.1c0.7-0.5,2.2-0.1,2.9-0.5c-0.1,0.4-0.2,0.9-0.4,1.4c0.7,0.1,0.4-0.8,0.6-1.1c0.6-0.5,1.4-0.8,2.1-1.2
		c0.2,0.4,0.1,1.2-0.2,1.5c0.2,0.2,0.5-0.3,0.8-0.3c-0.3-1.5,0.5-1.8,0.9-2.7c0.6,0,0.7,1,1.1,0.9c0-0.4-0.6-0.5-0.6-1
		c-0.2-1,0.7-1.9,0.8-2.8c0.5,0,0.7,0.4,1,0.6c0-0.8-0.7-0.8-1.3-1c0.2-0.7,0-1.7-0.1-2.4c0.4,0,0.7,0.2,1.1,0.2
		c-1.5-0.1-1.7-1.7-2.6-2.5c0.2-0.3,0.7-0.2,1-0.4c-0.3-0.5-0.7,0.1-1.2,0.1c-0.8-0.1-1.2-1.2-2.2-1.1c0-0.4,0.5-0.4,0.5-0.8
		c-0.7,0.6-1.9,0.4-3.1,0.4c0-0.4,0.2-0.6,0.4-0.8c-0.5,0-0.9,0-0.8,0.5c-0.8,0-1.4,0.2-2,0.5c-0.2-0.1,0-0.6-0.1-0.8
		c-0.4,1.2-2.2,1-3.5,1.3c-0.1-0.2,0.1-0.5-0.1-0.5c-0.3,0-0.3,0.5-0.3,0.9c-0.9,0.2-1.7,0.3-2.7,0.5c0-0.2,0.1-0.3,0.1-0.6
		c-0.3,1.3-2.2,0.9-3.3,1.4c-0.1-0.4,0.2-0.7,0.1-0.8c-0.3,1.4-2.5,0.5-3.6,0.6c-0.2-0.3,0.3-0.6,0.5-0.8c-0.5-0.1-0.6,0.3-0.9,0.4
		c-1.2,0.1-1.7-0.5-2.7-0.6c0.1-0.4,0.5-0.4,0.7-0.6c-0.3-0.5-0.9-0.2-1.1-0.1c-0.8-0.3-1.6-0.7-2-1.4c0.2-0.2,0.6-0.2,0.7-0.5
		c-1.8,0.3-2-1.7-2.4-3.1c0.2,0,0.5,0,0.7,0c-0.1-0.4-0.7-0.3-1.2-0.4c-0.1-0.9-0.2-1.9-0.2-2.8c0.4,0,0.5,0.3,0.8,0.3
		c-1.4-0.6-0.5-2.4-0.4-3.7c0.5,0,0.6,0.5,0.8,0.7c0.3-0.5-0.5-0.5-0.5-0.9c-0.1-1.6,1.2-1.8,1.6-2.9c0.3,0.2,0.3,0.6,0.5,1
		c0.4-0.3,0.1-0.8,0.2-1.2c0.2-0.9,1.2-1.4,1.8-1.8c0.1,0.3,0.1,0.6,0.1,1c0.1,0.1,0.4-0.3,0.6-0.4c-0.5-1.2,0.8-1.7,1.5-2.3
		c0.1,0.3,0.3,0.5,0.4,0.9c-0.3-1.8,1.6-2.2,2.7-2.9c0.1,0.3,0,0.6,0.3,0.7c0.3-0.4-0.2-0.8-0.2-1.3c0.8-0.4,1.2-1.1,1.8-1.6
		c0.1,0.3,0.2,0.5,0.4,0.7c-0.7-0.9,0.5-2.1,0.4-3.3c0.6,0,0.7,0.4,1,0.6c0.3-0.7-0.8-0.5-0.8-1c-0.1-0.9,0.3-1.9-0.1-2.6
		c0.3-0.2,0.9,0.2,1.2,0.4c0-0.6-0.8-0.6-1.1-1.1c-0.4-0.5-0.5-1.3-0.7-1.7c0.5-0.1,0.6-0.1,1.1,0c0.1-0.1-0.2-0.6-0.4-0.6
		c-1.1,0.5-1.4-0.6-2.4-0.8c0.1-0.5,0.6-0.6,0.8-0.9c-0.4,0-0.6,0.4-1.1,0.5c-0.9,0.1-1.6-0.8-2.6-0.7c0-0.5,0.2-0.6,0.4-0.9
		c-0.6,0-0.6,0.7-0.7,1.2c-0.5,0-1,0-1.4,0.1c-0.3,0.1-0.6,0.2-0.9,0.3c-0.1-0.4,0.2-1.2-0.1-0.9c0.2,1.5-1.6,1.7-2.1,2.7
		c-0.2-0.2-0.2-0.8-0.4-1.1c-0.6,0.4,0.5,0.8,0,1.6c-0.5,0.7-1.3,1.1-1.6,2c-0.3-0.3-0.3-0.8-0.6-1c-0.3,0.4,0.1,0.6,0.1,1.1
		c-0.1,0.9-1,1.5-1.4,2.2c-0.3-0.2-0.4-0.6-0.4-1.1c-0.3-0.1-0.8,0.8-0.4,1.2c-0.5,0.7-1.1,1.3-1.9,1.6c-0.2-0.3-0.1-0.8-0.3-1
		c0.1,2.1-2.7,1.5-3.9,1c0-0.4,0.4-0.4,0.5-0.7c-0.5-0.2-0.9,0.7-1.2,0.6c-0.9-0.4-1.7-1-2.2-1.8c0.3-0.1,0.6-0.1,0.7-0.3
		c-0.1-0.2-0.5,0.2-0.9,0.1c-1-0.5-1.3-1.7-1.9-2.7c0.3-0.2,0.7,0,1,0.1c-0.1-0.6-0.6-0.2-1-0.5c-0.6-0.8-0.2-2.1-0.2-3.3
		c0.2-0.6,0.5,0.6,0.8,0.3c-0.8-1.3,0.2-2.6,0.8-3.4c0.2,0.1,0.3,0.4,0.4,0.7c0.5-0.3,0.6-0.5,0.4-1.1c0.6-0.4,1-1,1.6-1.5
		c0.4,0,0.2,0.5,0.5,0.6c0-1.7,1.7-1.6,2.3-2.6c0.4-0.1,0.2,0.4,0.5,0.4c0.2-0.3-0.4-0.5-0.5-0.9c0.4-0.5,0.7-1,0.7-1.9
		c0.1,0.1,0.4,0,0.4,0.2c-0.4-0.3-0.5-1.8-1.4-1.9c0.2-0.3,0.5-0.6,1.1-0.5c-0.3-0.8-0.7,0.1-1.1,0.3c-0.9,0-1.8-0.3-2.2,0
		c0-0.5-0.1-1,0.2-1.3c-0.8-0.1-0.4,0.9-0.5,1.3c-0.2,0.7-1,1-1.1,1.7c-0.5-0.1-0.6-0.6-0.6-1.3c-0.3,0.1-0.3,0.5-0.5,0.6
		c0.2,0.3,0.3,0.7,0.5,0.9c-0.2,0.8-0.6,1.4-0.8,2.1c-0.5-0.1-0.6-0.6-0.9-0.9c1.1,1.6-0.8,3-2.4,3.4c0-0.3,0-0.7,0-1
		c-0.5,0.2-0.3,1-0.4,1.6c-0.8,0.3-2.1,0.2-3.1,0.1c0.1-0.4,0.5-0.6,0.6-0.9c-0.3-0.2-0.4,0.6-0.7,0.6c-1.7,0.1-2.3-0.9-3.1-1.6
		c0.3-0.1,0.6-0.2,1-0.2c-0.2-0.6-0.6,0.1-1.2-0.1c-0.9-0.6-1-2-1.5-3c0.2-0.2,0.7,0.1,0.9,0.2c-0.1-0.5-0.6-0.6-0.7-1
		c-0.1-1.2,0.2-1.9,0.5-2.7c0.3-0.2,0.4,0.2,0.5,0.4c0.5-0.1,0.1-0.6,0.3-0.9c0.3-0.6,1-0.9,1.4-1.6c0.3,0,0.2,0.4,0.5,0.5
		c-0.2-1.4,1.2-1.9,1.5-3c0.2,0.1,0.4,0.3,0.5,0.1c-0.2-0.2-0.4-0.3-0.7-0.4c0.4-0.7-0.5-1.2-0.4-1.6c-0.7,0.3-1.9,0.2-2.5,0.6
		c-0.1-0.8,0.2-1.2,0.5-1.6c-0.2,0.1-0.6,0.1-0.8,0.3c0.1,0.4,0.2,0.7,0.1,1.2c-0.7,0.7-2.1,0.6-3.2,0.9c0.1-0.6,0.4-0.8,0.5-1.4
		c-0.7-0.1-0.5,0.8-0.9,1c-1.4,0.3-2.5-0.4-3-1.2c0.4-0.1,0.7-0.2,1.3-0.2c-0.3-0.3-0.8-0.8-1.5-0.5c-0.4-0.6-0.8-1.7-0.5-2.7
		c0-0.4,0.4,0.2,0.6,0.1c-0.3-0.8-0.3-1.4,0.2-2c0.5-0.7,1.7-1.3,2.1-1.3c-0.7-0.9,0.8-1.1,0.7-2.2c0.2,0,0.2,0.1,0.4,0.1
		c-0.4-0.2-0.7-1.3-1.6-1.3c0-0.6,0.5-0.7,0.9-0.9c-0.2-0.1-0.2-0.3-0.5-0.3c-0.4,2-3,0.7-3.9,0.1c0.4-0.3,1-0.3,1.3-0.6
		c-0.5-0.3-0.8,0.1-1.3,0c-1-0.3-1.1-1.7-0.9-3c0.2,0,0.3,0.1,0.5,0.2c0.1-1.3,0.1-2.7,1-3.2c0,2.1,0.2,4.3,1.9,4.7
		c0.5,0.1,1.1,0,1.6,0c2.1,0.2,3.8,1.4,3.8,3.9c0,1.3-0.4,2.5-1,3.3c-0.5,0.7-2.4,2-1.5,2.9c2.2-0.1,3.8-1.5,6-1.3
		c2.5,0.2,4.9,2.5,4.9,5.3c0,1.6-0.8,3-1.6,3.8c-0.9,0.9-3.5,2-3.5,3.5c0.1,1.4,1.9,1.1,2.7,0.5c1.2-1.2,1.8-3,3-4.2
		c1.3-1.4,3.3-2.9,6.2-2.7c3.5,0.3,7.4,3.8,7.3,8.2c-0.1,2.9-1.4,4.4-2.7,5.8c-0.7,0.7-1.4,1.3-2.4,1.9c-1.1,0.7-3.2,1.5-2.9,3.3
		c0.2,1.3,1.8,1.4,2.7,0.7c1.9-1.3,3.3-4.3,4.9-5.9c1.7-1.7,4.8-3.7,8.7-3.5c6.2,0.3,10.9,4.9,11.3,10.2
		C137.4,49.6,135,51.8,132.5,55.1z"/>
</g>
<g id="SPLINE_80_">
	<path class="st2" d="M87.8,73.1c0.6-4.5-6.5-2.8-4.2,0.7c0.2,0.3,0.4,0.5,0.7,0.7c-3-0.9-2.1-5.5,1-5.4
		C87.1,69.2,88.5,70.9,87.8,73.1z"/>
</g>
<g id="HATCH_68_">
	<path class="st0" d="M72.3,73.1c-0.4,0.4-0.1,1.6-0.4,2.1C70.9,75.1,71.1,73,72.3,73.1c-0.5-1.5-1.6-2.3-1.9-3.8
		c1.4,1.3,3.8,4.6,1.7,6.9C71.8,75.1,72.7,74.3,72.3,73.1z"/>
</g>
<g id="SPLINE_81_">
	<path class="st2" d="M55.2,77.9c0,0.2-0.4,0-0.4,0.3c-0.2,1.2,2.1,0.4,0.4,0.8C54.7,79,54.6,77.6,55.2,77.9z"/>
</g>
<g id="SPLINE_82_">
	<path class="st2" d="M43.4,83.2c0.3,0,0.5,0.4,1,0.4c1.1-0.1,1-2.2,1.9-2.4c2.1-0.3,1.4,3.7,3.6,3.4c1.3-0.2,1-2.4,2.1-3.1
		c0.7-0.5,1.9-0.5,2.6-0.2c1.6,0.8,1.4,3.5,2,5c-1-1.4-0.5-4.4-2.6-4.8c-0.6-0.1-1.4,0-1.9,0.4c-1,0.7-0.9,2.9-2.3,3
		c-1.9,0.1-1.4-3.5-3.4-3.2C45.2,81.8,44.9,85.3,43.4,83.2z"/>
</g>
<g id="SPLINE_83_">
	<path class="st2" d="M125.4,81.6c-2.5-0.3-1.4,3.1-3.5,3.2c-2.2,0.1-1.2-4.4-4.6-3.3c-1.9,0.6-1.3,3.2-2.4,5
		c0.7-1.8,0.3-5.2,2.7-5.5c1-0.1,1.9,0.2,2.4,0.9c0.7,1.1,0.3,2.9,2.1,2.6c1.5-0.3,1.1-3.6,3-3.4c1.1,0.2,1.3,3.8,2.9,1.8
		C127.4,85.1,126,82.5,125.4,81.6z"/>
</g>
<g id="SPLINE_84_">
	<path class="st2" d="M57.5,88.3c-0.8-0.2-1.3-0.5-1.7-1.1c-0.9-1.4-0.4-4.1-1.7-4.7c-2.5-1.1-2.3,2.8-3.7,3c-1,0.2-1.8-0.5-1.8-0.5
		c-0.7-0.6-0.9-1.4-0.9-1.6c-0.4-1.1,0.4,0.5,0.5,0.6c0.6,0.9,1.7,1.5,2.7,0.7c0.7-0.5,0.5-1.4,1.2-2.3c0.7-0.8,1.9-0.7,2.6-0.2
		c0.9,0.8,0.7,2.6,1.3,4C56.2,87.4,56.9,87.6,57.5,88.3z"/>
</g>
<g id="SPLINE_85_">
	<path class="st2" d="M118.9,82.4c-3.2-0.6-2,3.2-3.3,4.9c-0.4,0.5-0.8,0.5-1.5,1c0.3-0.8,0.7-0.6,1.2-1.2c1.1-1.4,0.6-4,1.8-4.8
		c2.6-1.7,2.7,2.8,4.5,2.9c1.3,0.1,1.9-1.2,2.4-1.9c0,0.1,0,0.1-0.1,0.1c-0.4,1.2-1.3,2.5-2.7,2.1C119.8,85.2,120.1,83,118.9,82.4z"
		/>
</g>
<g id="SPLINE_86_">
	<path class="st2" d="M42.4,82.6c-0.2,0.1-0.6-0.1-0.6,0.1c-0.2-0.1,0.3-0.4,0.5-0.5c0.9,0.7,0.9,2.5,2.5,2.1c1-0.2,0.8-1.6,1.7-2
		c0.3-0.1,1.1,0.7,0.7,0.5c0,0-0.2-0.3-0.5-0.3c-1.1,0.1-1.1,2.1-2.6,1.9C43.1,84.4,43,83.3,42.4,82.6z"/>
</g>
<g id="HATCH_69_">
	<path class="st0" d="M48.7,41.2c0.3,0.1,0.6,0.2,0.9,0.3c0.1-0.3-0.1-0.8,0.1-1c-0.1,1.7,1.6,1.7,2.1,2.8c0.3-0.2,0.3-0.7,0.5-1.1
		c0.5,0.4-0.5,0.9-0.1,1.6c-1.5,0.4-2.8,1-3.7,2c2.8,3.2,6.5,5.3,10.4,7.4c1.2-0.7,1.8-2,3.5-2c2.6-0.1,4.5,3.4,1.6,4.4
		c0.2-0.7,0.7-1,0.5-1.9C64,51.8,61,53,60.5,54.3c2.2,0.2,4.2,1.9,3.7,4.3c-0.4,1.8-3.3,2.4-4.1,0.8c1.3,0.3,2.3-0.3,2.8-1.1
		c0.1-2-1.1-2.8-2.9-2.8c0.4,1.9-0.3,4.3-2.6,3.7c-0.6-0.1-1-0.7-1.3-1.3c2.3,1.3,3.7-1.9,2.1-3.2c-2.4-0.8-5.2-1.9-8-3.4
		c-2.2-1.2-5.5-3.1-5.9-5.5C44,43.3,47.1,42.3,48.7,41.2z"/>
</g>
<g id="HATCH_70_">
	<path class="st0" d="M85.7,74.4c0.4,0,1.1-1.2,0.7-1.9C84.9,71.1,84.6,74.4,85.7,74.4z M85.3,69.2c-3.1-0.1-4,4.5-1,5.4
		c-0.3-0.2-0.5-0.4-0.7-0.7c-2.3-3.5,4.8-5.3,4.2-0.7C88.5,70.9,87.1,69.2,85.3,69.2z M84.8,67.9c1.9-0.2,3.7,1.1,3.8,3.1
		c0.3,3.4-3.9,5.2-6.1,2.8C80.3,71.5,82.1,68.1,84.8,67.9z"/>
</g>
<g id="HATCH_71_">
	<path class="st0" d="M111.5,76.4c-0.2-0.4,0-0.8,0.2-1c-0.8,0-0.6,1.2-0.1,1.3c1.3,0.1,1.5-0.4,2.3-0.2c1.5,0.3,1.5,4.2,2.9,1.8
		c-0.2,1.1-2,0.6-1.4-0.6c1.1-1.1,2.9,0.4,1.9,1.6c-1,0.9-2.8,0.8-3.6-0.3c-0.3-0.5-0.2-1-0.8-1.2c-0.8-0.3-2.4,0.1-2.9-0.5
		c-1.5-1.8,1.3-4.3,2.9-2.8C113.8,75.3,113.2,77.3,111.5,76.4z"/>
</g>
<g id="HATCH_72_">
	<path class="st0" d="M121.2,85.5c1.5,0.4,2.4-0.9,2.7-2.1c0.1,0,0.1,0,0.1-0.1c-0.5,0.7-1.1,2-2.4,1.9c-1.8-0.1-1.8-4.6-4.5-2.9
		c-1.3,0.8-0.8,3.5-1.8,4.8c-0.5,0.6-0.9,0.4-1.2,1.2c0.7-0.5,1.1-0.5,1.5-1c1.3-1.7,0.1-5.5,3.3-4.9
		C120.1,83,119.8,85.2,121.2,85.5z M128.1,83c-1.6,2-1.8-1.7-2.9-1.8c-1.9-0.3-1.5,3.1-3,3.4c-1.8,0.3-1.4-1.5-2.1-2.6
		c-0.5-0.7-1.4-1-2.4-0.9c-2.4,0.3-2,3.6-2.7,5.5c1-1.8,0.5-4.4,2.4-5c3.4-1.1,2.4,3.4,4.6,3.3c2.1-0.1,0.9-3.5,3.5-3.2
		C126,82.5,127.4,85.1,128.1,83z M102.9,92.1c-4.7-1-7.2-5.3-7.7-10.5c1,0.1,1.2,1.5,1.6,2.4c0.5,1,0.9,2,1.8,2.4
		c0.6,0.1,1.4-0.1,1.9,0c0.7,0.2,0.9,0.8,1.4,1.2c2.7,2.4,8.2,3.3,10.9,0.6c-3.5,2.1-9.6,0.9-11.2-2.1c1-0.1,1.8-0.4,2.5-0.8
		c1.1,1.7,4.5,3.8,7.7,2.3c1-0.5,2-1.8,1.5-3.4c-0.5-1.3-3.4-2-3.2,0.3c0.6,0.1,0.2-0.9,1.1-0.8c1.3,0.1,0.3,2-0.5,2.1
		c-1.5,0.2-2.4-1.2-1.7-2.7c0.9-2,5.2-1,5.6,1.5c0.4-1.4,0.4-2.7,1.5-3.7c1.2-1.1,3.9-1,4.8,0.5c0.4,0.7,0.3,2.3,1.1,2.4
		c1.4,0.2,1.3-3.5,3.4-3.3c1.4,0.1,1.1,2,2.1,2.6c1-0.2,0.9-1.8,2-1.8c0.8,0,0.7,0.5,1.4,0.9c0.5,0,0.6-0.4,1.1-0.5
		c0.7,0.7,1.6-0.4,2,0.5c-0.9-0.4-1.4,0.8-2.1-0.2c-1.1,1.6-1.7-0.9-2.8-0.1c0.9-0.4,1.2,0.8,1.7,0.8c0.6,0.1,1-1.1,1.6-0.3
		c-0.6-0.2-0.9,0.6-1.5,0.6c-0.6,0-0.7-0.6-1.3-0.8c-1.1,0.5-1,2.6-2.7,2.1c-0.9-0.3-0.7-1.7-1.6-2c-0.5,0.1-0.7,0.4-1,0.7
		c1.5-1.5,1.7,1.5,3.2,1.5c0.5,0,1-0.3,1.3-0.7c0.3-0.4,0.3-1.1,0.7-1.2c0.6-0.2,0.8,0.4,1.5,0.6c0.5,0,0.6-0.6,1.1-0.6
		c-0.3,1-1.4,1.2-2.3,0.5c-0.6,0.9-1.3,2.3-2.9,1.8c-0.9-0.3-1-1.3-1.6-1.7c-1.3,1-1.2,3.1-3.3,3.1c-0.3,0-0.9-0.1-1.3-0.4
		c-0.7-0.5-1.1-2.9-1.9-3c-1.1-0.1-1.1,1.3-1.4,2.7c-0.3,1.7-1.2,3.2-2.7,3.7c-0.3,0.1-1.1,0.1-1.2,0.2c-0.8,0.3-1.4,1.3-2.2,1.7
		c-0.9,0.5-1.7,0.7-2.9,1c-0.5,0-1,0.1-1.6,0.1c-0.9,3.4-2.1,6.8-1.8,10.4c0.4,5.2,4,9.3,9.4,9.7c6.4,0.5,9.7-4.4,9.1-10.4
		c-0.2-2.1-0.6-5-0.4-7.3c0.5-4.8,4.7-6.5,9.7-6.4c1.3,0,2.7,0.3,4.1,0.4c6.9,0.3,12.6-1.5,13.1-7.8c0.5-6.6-4.6-9.9-10.1-9.5
		c-3.6,0.3-6.9,2-10.5,2.2c-5.9,0.4-9.5-2.4-9.9-7.3c-0.4-5.9,4.5-7.5,7.1-9.9c2.8-2.5,5.6-5.2,5.9-9.8c0.4-4.9-3.1-8-7-8.2
		c-3.7-0.2-5.9,1.8-7.8,4c-1.4,1.7-2.9,4.9-5.7,5.2c-3.5,0.4-6.1-2.4-5.8-5.6c0.5-4.8,7-4.4,7.6-9.7c0.4-3.3-1.9-5.8-5.4-5.1
		c-3.7,0.8-3.6,5.2-6.1,7c-2.7,2-6.5-0.6-6.2-3.6c0.3-3.3,4-3.9,4.3-7.1c0.3-2.4-1.6-3.5-3.4-3.5c-2.1,0-6.3,2.2-6.8-0.6
		c-0.2-1.3,0.6-2.2,1.4-2.6c-0.9,0.9-1.1,3.1,0.3,3.4c2.3,0.4,3.6-1.2,5.8-1c1.7,0.1,3.3,1.1,3.6,3.1c0.3,2.3-0.9,3.9-1.9,5.1
		c-1,1.2-2.1,1.8-2.2,3.4c-0.1,1.8,1.4,3.1,2.8,3.1c3.1,0,3.7-3.5,4.9-5.3c0.9-1.4,2.1-2.6,4.2-2.7c3.3-0.3,5.8,1.7,6.1,4.8
		c0.3,3.1-1.2,5.3-2.3,6.3c-1.2,1.2-2.7,1.5-3.9,2.7c-2,2-0.8,6.3,2.6,6.2c2.3-0.1,4-2.8,5.6-4.7c1.4-1.7,3.4-3.9,6.2-4.1
		c6.2-0.5,10.2,3.1,10.7,7.8c0.5,5.6-3,9.5-5.7,11.8c-2.8,2.4-7.4,3.9-7.4,8.9c0,4.2,2.9,6.3,6.6,6.5c4.9,0.2,8.6-2,12.8-2.3
		c6-0.3,10.9,2.4,11.3,8.1c0.7,9.6-5.3,12.7-14.4,12.3c-1.2-0.1-2.3-0.3-3.7-0.4c-4.4-0.3-8.4,1.3-8.9,4.9
		c-0.5,3.4,0.7,7.1,0.5,10.5c-0.3,4.5-3.6,9-8.3,9.3c-8.4,0.6-13.9-4.7-14.4-11.7c-0.2-4,1-7,2.4-10.6
		C104.1,92.3,103.5,92.2,102.9,92.1z"/>
</g>
<g id="HATCH_73_">
	<path class="st0" d="M44.2,84.5c1.5,0.1,1.4-1.8,2.6-1.9c0.2,0,0.5,0.3,0.5,0.3c0.4,0.1-0.4-0.6-0.7-0.5c-0.9,0.4-0.8,1.8-1.7,2
		c-1.6,0.4-1.5-1.4-2.5-2.1c-0.3,0-0.7,0.3-0.5,0.5c0-0.2,0.5,0,0.6-0.1C43,83.3,43.1,84.4,44.2,84.5z M55.8,86.5
		c-0.6-1.4-0.4-3.3-1.3-4c-0.6-0.5-1.9-0.6-2.6,0.2c-0.7,0.9-0.5,1.8-1.2,2.3c-1,0.8-2.2,0.1-2.7-0.7c-0.1-0.2-0.8-1.7-0.5-0.6
		c0.1,0.2,0.2,1,0.9,1.6c0,0,0.9,0.6,1.8,0.5c1.4-0.2,1.2-4.1,3.7-3c1.3,0.6,0.8,3.3,1.7,4.7c0.4,0.6,0.9,0.9,1.7,1.1
		C56.9,87.6,56.2,87.4,55.8,86.5z M46.4,81.6c2-0.3,1.5,3.3,3.4,3.2c1.4-0.1,1.3-2.3,2.3-3c0.6-0.4,1.4-0.5,1.9-0.4
		c2.1,0.4,1.6,3.5,2.6,4.8c-0.6-1.6-0.4-4.3-2-5c-0.7-0.3-1.8-0.3-2.6,0.2c-1.1,0.7-0.8,2.9-2.1,3.1c-2.2,0.3-1.5-3.7-3.6-3.4
		c-0.9,0.2-0.9,2.3-1.9,2.4c-0.5,0.1-0.7-0.3-1-0.4C44.9,85.3,45.2,81.8,46.4,81.6z M63.4,92.3c-2.2-0.4-3.8-1.4-5-2.7
		c-1.3-0.2-2.2-0.5-3-1.6c-0.9-1.2-0.7-5.1-2.2-5c-1,0.1-1.2,2.7-2.3,3.2c-2.4,1.1-3.1-1.7-4.2-2.9c-0.8,0.4-0.7,1.3-1.4,1.6
		c-1.5,0.8-2.6-0.4-3.1-1.6c-0.8,0.2-2.1,0.7-2.4-0.6c0.5,0.3,1,1,1.6,0.4c-0.7,0.3-1.4-0.6-1.9-0.6c0.5-0.5,0.9,0.3,1.4,0.4
		c0.6-0.2,1.2-1.4,2-0.5c-0.8-1.5-1.9,1.5-2.9-0.2c-0.7,0.9-1.3-0.1-2.1,0.2c0.4-1,1.3,0.2,1.9-0.5c0.5,0,0.6,0.5,1,0.5
		c0.8-0.3,0.7-1,1.6-0.9c1,0.1,0.9,1.5,1.7,1.8c1.2-0.4,0.8-2.4,2.2-2.6c1.1-0.1,1.6,0.8,1.9,1.5c0.4,0.8,0.7,1.9,1.5,1.8
		c0.9-0.1,0.8-2,1.3-2.7c1.8-2.6,6.5-0.2,5.9,3.3c0.8-1.4,2.3-2.8,4.2-2.5c1.1,0.2,2.6,2.2,1.2,3.4c-0.5,0.4-1.5,0.5-2,0.2
		c-0.4-0.3-0.7-1.9,0.2-1.9c0.8-0.1,0.4,0.7,1,0.9c0.4-2.4-2.9-1.7-3.3-0.2c-0.2,0.9,0.1,1.8,0.5,2.4c1.9,2.5,7.7,1.1,8.6-1.5
		c0.8,0.3,1.5,0.8,2.7,0.8c-1.7,2.9-7.5,4.2-11.1,2.2c2.4,2.7,7.9,1.4,10.3-0.5c0.5-0.4,1-1.2,1.6-1.4c0.7-0.2,1.5,0.1,2.1-0.1
		c1.1-0.3,1.3-1.4,1.7-2.4c0.4-0.9,0.7-2.1,1.6-2.3c0.3,1.2-0.3,2.5-0.7,3.6c-1.2,3.4-3.1,6.2-7,7c-0.5,0.2-1.3,0.1-1.7,0.4
		c1.2,2.8,2.2,5.1,2.4,8.3c0.6,8.8-5.7,14.7-14.5,13.9c-5-0.5-8-5.1-8.2-9.9c-0.2-3.4,0.8-6.2,0.5-9.5c-0.3-3.6-3.6-5.2-6.6-5.4
		c-2.4-0.2-4.1,0.3-6.2,0.4c-8.9,0.4-13.8-2.6-14.3-10.2c-0.4-6.7,3.8-9.9,9.8-10.2c5.5-0.3,9.2,2.6,14.5,2.3c3.4-0.2,6.1-2,6.4-5.9
		c0.5-5.4-4.5-6.9-7.4-9.4c-2.7-2.2-5.4-5.7-5.7-10c-0.4-5.5,3.4-9.3,8.5-9.6c4.3-0.3,6.3,1.6,8.2,3.8c1.2,1.4,3.1,4.3,5,4.8
		c2.4,0.6,4.5-1.4,4.4-3.7c-0.1-3-3.7-3.6-5.3-5.4c-2-2.3-2.9-7-0.4-9.4c1.6-1.5,5.4-2,7.3-0.5c2.4,1.9,2.7,7.2,6.4,7
		c1.1,0,2.5-0.9,2.7-2.6c0.2-2-1.2-2.8-2.2-3.9c-0.8-0.9-1.5-2.2-1.8-3.4c-0.6-2.6,1-4.4,2.8-4.8c2.2-0.4,3.4,0.7,5.2,0.9
		c2.6,0.3,2.6-1.8,1.6-3.5c1.8,1.1,1.6,3.8-0.1,4.1c-1.7,0.3-3.8-0.8-5.5-0.8c-1.8,0-3.2,1.2-3.3,2.8c-0.2,3.7,4,4.6,4.3,7.7
		c0.3,2.8-1.9,4.5-4.5,4.3c-1.8-0.1-2.8-1.6-3.5-2.9c-0.8-1.4-1.5-3-2.7-3.8c-2.8-2.2-6.8-0.1-7.1,2.9c-0.7,6.7,7,5.8,7.6,11
		c0.4,3.5-2.3,6.1-5.8,5.7c-2.3-0.3-3.4-2.3-4.4-3.7c-1.9-2.5-3.9-5.4-8.2-5.6c-4.7-0.2-7.7,3.6-7.9,6.9c-0.3,5.1,3.2,8.8,5.8,11.1
		c2.8,2.5,6.9,3.8,7.3,8.4c0.6,6.8-4.3,9.3-10,8.9c-3.8-0.3-6.9-2-10.4-2.2c-5.7-0.4-10.5,3.2-10.1,9.3c0.4,5.4,4.3,7.7,10,8
		c3,0.2,6-0.5,8.6-0.3c5,0.4,8.7,2.2,8.4,8c0,1-0.2,2.6-0.3,3.8c-0.6,7.3,1.6,12.9,9.1,12.3c5.1-0.4,8.9-4.4,9.2-9.4
		C67.2,99,66,95.8,65,92.4C64.4,92.5,64,92.3,63.4,92.3z"/>
</g>
</svg>
